<svg width="20" height="14" viewBox="0 0 20 14" fill="none" xmlns="http://www.w3.org/2000/svg">
<path d="M0.998892 12H18.9989C19.2538 12.0003 19.4989 12.0979 19.6843 12.2728C19.8696 12.4478 19.9811 12.687 19.9961 12.9414C20.011 13.1958 19.9282 13.4464 19.7646 13.6418C19.601 13.8373 19.369 13.9629 19.1159 13.993L18.9989 14H0.998892C0.744012 13.9997 0.49886 13.9021 0.313524 13.7272C0.128188 13.5522 0.0166572 13.313 0.00172004 13.0586C-0.0132171 12.8042 0.0695667 12.5536 0.233157 12.3582C0.396747 12.1627 0.628796 12.0371 0.881892 12.007L0.998892 12ZM0.998892 6L18.9989 5.998C19.2538 5.99828 19.4989 6.09588 19.6843 6.27085C19.8696 6.44582 19.9811 6.68495 19.9961 6.93939C20.011 7.19384 19.9282 7.44438 19.7646 7.63983C19.601 7.83529 19.369 7.9609 19.1159 7.991L18.9989 7.998L0.998892 8C0.744012 7.99972 0.49886 7.90212 0.313524 7.72715C0.128188 7.55218 0.0166572 7.31305 0.00172004 7.05861C-0.0132171 6.80416 0.0695667 6.55362 0.233157 6.35817C0.396747 6.16271 0.628796 6.0371 0.881892 6.007L0.998892 6ZM0.998892 0H18.9989C19.2538 0.000282707 19.4989 0.0978789 19.6843 0.272848C19.8696 0.447817 19.9811 0.686953 19.9961 0.941395C20.011 1.19584 19.9282 1.44638 19.7646 1.64183C19.601 1.83729 19.369 1.9629 19.1159 1.993L18.9989 2H0.998892C0.744012 1.99972 0.49886 1.90212 0.313524 1.72715C0.128188 1.55218 0.0166572 1.31305 0.00172004 1.05861C-0.0132171 0.804163 0.0695667 0.553621 0.233157 0.358168C0.396747 0.162715 0.628796 0.0371036 0.881892 0.00699997L0.998892 0Z" fill="white"/>
</svg>
