<svg width="57" height="75" viewBox="0 0 57 75" fill="none" xmlns="http://www.w3.org/2000/svg">
<path d="M1.41288 70.8136L0.706021 3.89744C0.700988 3.21992 0.88083 2.55386 1.22618 1.97095C1.57154 1.38804 2.06932 0.910357 2.66597 0.589313C3.26261 0.268269 3.93552 0.116024 4.61225 0.148967C5.28899 0.181909 5.94392 0.39879 6.50656 0.776267L55.1883 33.7238C57.2068 35.0893 57.242 38.4277 55.2529 39.8392L7.27802 73.8078C6.72469 74.201 6.07419 74.435 5.3972 74.4844C4.72021 74.5339 4.04262 74.3968 3.43805 74.0882C2.83349 73.7795 2.32506 73.3111 1.96802 72.7338C1.61098 72.1565 1.41898 71.4924 1.41288 70.8136Z" fill="white"/>
</svg>
