<svg width="704" height="82" viewBox="0 0 704 82" fill="none" xmlns="http://www.w3.org/2000/svg">
<path d="M49.5792 48.3349H70.8592C71.8692 48.3349 72.6892 48.3749 73.2992 48.4449C73.9092 48.5149 74.3992 48.7148 74.7692 49.0448C75.1292 49.3748 75.3792 49.9148 75.5292 50.6748C75.6692 51.4348 75.7492 52.4649 75.7492 53.7749V62.5648C75.7492 66.6149 75.1892 69.8749 74.0692 72.3349C72.9492 74.7949 71.3692 76.7349 69.3492 78.1449C67.3192 79.5549 64.8992 80.4949 62.0792 80.9649C59.2592 81.4349 56.1092 81.6748 52.6292 81.6748H26.2492C22.1192 81.6748 18.4892 81.5649 15.3392 81.3449C12.1892 81.1249 9.54921 80.4248 7.40921 79.2248C5.26921 78.0348 3.65919 76.1149 2.57919 73.4649C1.48919 70.8249 0.949219 67.1149 0.949219 62.3349V19.5548C0.949219 14.7748 1.48919 11.0649 2.57919 8.42487C3.66919 5.78487 5.27921 3.86486 7.40921 2.66486C9.53921 1.47486 12.1892 0.764861 15.3392 0.544861C18.4892 0.324861 22.1292 0.214844 26.2492 0.214844H52.9592C56.3592 0.214844 59.4692 0.474854 62.2992 0.974854C65.1192 1.48485 67.5292 2.44486 69.5192 3.85486C71.5092 5.26486 73.0492 7.20486 74.1292 9.66486C75.2192 12.1249 75.7592 15.3449 75.7592 19.3249V28.1148C75.7592 29.4148 75.6892 30.4449 75.5392 31.2049C75.3892 31.9649 75.1392 32.5049 74.7792 32.8349C74.4192 33.1649 73.9292 33.3648 73.3092 33.4348C72.6892 33.5048 71.8792 33.5448 70.8692 33.5448H49.5892C48.5692 33.5448 47.7592 33.5148 47.1492 33.4348C46.5292 33.3648 46.0492 33.1649 45.6792 32.8349C45.3192 32.5049 45.0592 31.9649 44.9192 31.2049C44.7692 30.4449 44.6992 29.4148 44.6992 28.1148C44.6992 26.4448 44.6492 25.0548 44.5392 23.9348C44.4292 22.8148 44.1192 21.9249 43.6192 21.2749C43.1092 20.6249 42.3692 20.1748 41.3892 19.9148C40.4092 19.6648 39.0592 19.5349 37.3192 19.5349C36.0892 19.5349 35.1092 19.6448 34.3892 19.8648C33.6692 20.0848 33.1192 20.4249 32.7592 20.8949C32.3992 21.3649 32.1792 22.0149 32.1092 22.8449C32.0392 23.6749 31.9992 24.7048 31.9992 25.9348V55.9049C31.9992 57.4949 32.1092 58.7249 32.3292 59.5949C32.5492 60.4649 32.8892 61.0948 33.3592 61.4948C33.8292 61.8948 34.4792 62.1349 35.3092 62.2049C36.1392 62.2749 37.1692 62.3148 38.3992 62.3148H39.5892C40.8192 62.3148 41.7792 62.0848 42.4692 61.6048C43.1592 61.1348 43.6592 60.5049 43.9892 59.7049C44.3192 58.9049 44.5192 58.0349 44.5892 57.0949C44.6592 56.1549 44.6992 55.1748 44.6992 54.1648V53.7348C44.6992 52.4348 44.7692 51.3949 44.9192 50.6349C45.0592 49.8749 45.3192 49.3349 45.6792 49.0049C46.0392 48.6749 46.5292 48.4849 47.1492 48.4049C47.7492 48.3649 48.5692 48.3349 49.5792 48.3349Z" fill="#ED1C24"/>
<path d="M95.3984 5.66266C95.3984 4.36266 95.4684 3.32265 95.6184 2.56265C95.7584 1.80265 96.0184 1.26265 96.3784 0.932648C96.7384 0.602648 97.2284 0.412642 97.8484 0.332642C98.4584 0.262642 99.2785 0.222656 100.288 0.222656H121.568C122.578 0.222656 123.398 0.262642 124.008 0.332642C124.618 0.402642 125.108 0.602648 125.478 0.932648C125.838 1.26265 126.088 1.80265 126.238 2.56265C126.378 3.32265 126.458 4.35266 126.458 5.66266V33.0227H135.468V5.66266C135.468 4.36266 135.538 3.32265 135.688 2.56265C135.828 1.80265 136.088 1.26265 136.448 0.932648C136.808 0.602648 137.298 0.412642 137.918 0.332642C138.528 0.262642 139.348 0.222656 140.358 0.222656H161.638C162.648 0.222656 163.468 0.262642 164.078 0.332642C164.688 0.402642 165.178 0.602648 165.548 0.932648C165.908 1.26265 166.158 1.80265 166.308 2.56265C166.448 3.32265 166.528 4.35266 166.528 5.66266V76.2326C166.528 77.5326 166.458 78.5627 166.308 79.3227C166.158 80.0827 165.908 80.6227 165.548 80.9527C165.188 81.2827 164.698 81.4826 164.078 81.5526C163.458 81.6226 162.648 81.6626 161.638 81.6626H140.358C139.338 81.6626 138.528 81.6326 137.918 81.5526C137.298 81.4826 136.818 81.2827 136.448 80.9527C136.088 80.6227 135.828 80.0827 135.688 79.3227C135.538 78.5627 135.468 77.5326 135.468 76.2326V56.9027H126.458V76.2326C126.458 77.5326 126.388 78.5627 126.238 79.3227C126.088 80.0827 125.838 80.6227 125.478 80.9527C125.118 81.2827 124.628 81.4826 124.008 81.5526C123.388 81.6226 122.578 81.6626 121.568 81.6626H100.288C99.2685 81.6626 98.4584 81.6326 97.8484 81.5526C97.2284 81.4826 96.7484 81.2827 96.3784 80.9527C96.0184 80.6227 95.7584 80.0827 95.6184 79.3227C95.4684 78.5627 95.3984 77.5326 95.3984 76.2326V5.66266Z" fill="#ED1C24"/>
<path d="M227.64 42.2522C227.64 43.8422 227.6 45.0922 227.53 46.0022C227.46 46.9122 227.28 47.5922 226.99 48.0622C226.7 48.5322 226.27 48.8422 225.69 48.9822C225.11 49.1222 224.35 49.2022 223.41 49.2022H219.72V58.9722C219.72 60.4922 219.88 61.4522 220.21 61.8522C220.54 62.2522 221.1 62.4522 221.89 62.4522H224.6C225.54 62.4522 226.14 62.0422 226.39 61.2022C226.64 60.3722 226.77 59.4522 226.77 58.4322V54.9622C226.77 53.6622 226.82 52.6222 226.93 51.8622C227.04 51.1022 227.27 50.5622 227.64 50.2322C228 49.9022 228.49 49.7122 229.1 49.6322C229.71 49.5622 230.53 49.5222 231.54 49.5222H251.52C252.53 49.5222 253.35 49.5622 253.96 49.6322C254.57 49.7022 255.06 49.9022 255.43 50.2322C255.79 50.5622 256.04 51.1022 256.19 51.8622C256.33 52.6222 256.41 53.6522 256.41 54.9622V65.6022C256.41 67.6322 256.36 69.6022 256.25 71.5222C256.14 73.4422 255.76 75.1622 255.11 76.6822C254.46 78.2022 253.43 79.4122 252.02 80.3222C250.61 81.2322 248.64 81.6822 246.1 81.6822H193.55C192.53 81.6822 191.72 81.6522 191.11 81.5722C190.49 81.5022 190.01 81.3022 189.64 80.9722C189.28 80.6422 189.02 80.1022 188.88 79.3422C188.73 78.5822 188.66 77.5522 188.66 76.2522V5.68219C188.66 4.38219 188.73 3.34218 188.88 2.58218C189.02 1.82218 189.28 1.28221 189.64 0.952209C190 0.622209 190.49 0.432203 191.11 0.352203C191.72 0.282203 192.54 0.242188 193.55 0.242188H246.1C248.34 0.242188 250.17 0.672206 251.58 1.54221C252.99 2.41221 254.06 3.5922 254.78 5.0722C255.5 6.5522 255.99 8.2222 256.25 10.0722C256.5 11.9122 256.63 13.8122 256.63 15.7722V25.7622C256.63 27.0622 256.54 28.0922 256.36 28.8522C256.18 29.6122 255.89 30.1522 255.49 30.4822C255.09 30.8122 254.57 31.0122 253.91 31.0822C253.26 31.1522 252.43 31.1922 251.41 31.1922H233.6C232.08 31.1922 230.89 31.1422 230.02 31.0322C229.15 30.9222 228.5 30.7422 228.06 30.4922C227.63 30.2422 227.34 29.8622 227.19 29.3522C227.04 28.8422 226.97 28.1622 226.97 27.2922V22.6222C226.97 21.1722 226.64 20.3122 225.99 20.0222C225.34 19.7322 224 19.5922 221.97 19.5922C220.81 19.5922 220.14 19.8522 219.96 20.3522C219.78 20.8622 219.69 21.5822 219.69 22.5222V31.5322C221.43 31.5322 222.84 31.5722 223.92 31.6422C225.01 31.7122 225.82 31.9122 226.36 32.2422C226.9 32.5722 227.26 33.0222 227.45 33.6022C227.63 34.1822 227.72 34.9422 227.72 35.8822C227.72 36.6822 227.7 37.5822 227.67 38.6022C227.66 39.5722 227.64 40.8022 227.64 42.2522Z" fill="#ED1C24"/>
<path d="M275.301 5.66266C275.301 4.36266 275.371 3.32265 275.521 2.56265C275.671 1.80265 275.921 1.26265 276.281 0.932648C276.641 0.602648 277.131 0.412642 277.751 0.332642C278.361 0.262642 279.181 0.222656 280.191 0.222656H323.191C327.321 0.222656 330.951 0.332643 334.101 0.552643C337.251 0.772643 339.891 1.47267 342.031 2.67267C344.161 3.86267 345.781 5.78265 346.861 8.43265C347.951 11.0726 348.491 14.7827 348.491 19.5627V44.9726C348.491 48.4426 347.641 51.5427 345.941 54.2527C344.241 56.9727 341.761 58.9727 338.501 60.2827L348.161 76.2426V76.8927C348.161 79.2127 347.821 80.5827 347.131 81.0227C346.441 81.4527 345.161 81.6726 343.281 81.6726H322.981C322.041 81.6726 321.261 81.6427 320.641 81.5627C320.021 81.4927 319.521 81.3127 319.121 81.0227C318.721 80.7327 318.451 80.2826 318.311 79.6626C318.161 79.0526 318.091 78.1627 318.091 77.0027V76.2426L310.381 61.5827H306.581V76.2426C306.581 77.5426 306.511 78.5727 306.361 79.3327C306.211 80.0927 305.961 80.6327 305.601 80.9627C305.241 81.2927 304.751 81.4927 304.131 81.5627C303.511 81.6327 302.701 81.6726 301.691 81.6726H280.191C279.181 81.6726 278.361 81.6427 277.751 81.5627C277.131 81.4927 276.651 81.2927 276.281 80.9627C275.921 80.6327 275.661 80.0927 275.521 79.3327C275.371 78.5727 275.301 77.5426 275.301 76.2426V5.66266ZM306.571 40.7326H317.431V25.9627C317.431 24.5927 317.391 23.4827 317.321 22.6527C317.251 21.8227 317.031 21.1727 316.671 20.7027C316.311 20.2327 315.751 19.9227 314.991 19.7827C314.231 19.6427 313.161 19.5627 311.791 19.5627C310.491 19.5627 309.491 19.6527 308.801 19.8327C308.111 20.0127 307.611 20.3427 307.281 20.8127C306.951 21.2827 306.751 21.9027 306.681 22.6527C306.611 23.4127 306.571 24.3326 306.571 25.4226V40.7326Z" fill="#ED1C24"/>
<path d="M391.258 81.6643H371.828C370.818 81.6643 369.998 81.6344 369.388 81.5544C368.768 81.4844 368.287 81.2844 367.917 80.9544C367.557 80.6244 367.297 80.0844 367.157 79.3244C367.007 78.5644 366.938 77.5343 366.938 76.2343V19.3444C366.938 15.3644 367.497 12.1244 368.617 9.62436C369.737 7.12436 371.318 5.17437 373.338 3.76437C375.368 2.35437 377.787 1.41437 380.607 0.944366C383.427 0.474366 386.577 0.234375 390.057 0.234375H416.878C421.008 0.234375 424.637 0.344362 427.787 0.564362C430.937 0.784362 433.577 1.48436 435.717 2.68436C437.847 3.87436 439.467 5.79437 440.547 8.44437C441.637 11.0844 442.177 14.7944 442.177 19.5744V76.2544C442.177 77.5544 442.108 78.5844 441.958 79.3444C441.808 80.1044 441.558 80.6443 441.198 80.9743C440.838 81.3043 440.347 81.5044 439.727 81.5744C439.107 81.6444 438.297 81.6844 437.287 81.6844H418.068C416.548 81.6844 415.318 81.5743 414.378 81.3543C413.438 81.1343 412.728 80.8144 412.258 80.3744C411.788 79.9444 411.478 79.3844 411.338 78.6944C411.188 78.0044 411.117 77.2243 411.117 76.3643V67.0044H398.198V76.3444C398.198 77.2144 398.127 77.9943 397.977 78.6743C397.827 79.3643 397.527 79.9243 397.057 80.3543C396.587 80.7843 395.877 81.1144 394.938 81.3344C394.007 81.5544 392.778 81.6643 391.258 81.6643ZM398.198 40.7343H411.117V25.9644C411.117 24.8044 411.098 23.8143 411.068 22.9743C411.028 22.1443 410.848 21.4744 410.528 20.9644C410.198 20.4644 409.698 20.0944 409.008 19.8744C408.318 19.6544 407.358 19.5443 406.128 19.5443H403.417C402.117 19.5443 401.117 19.6344 400.427 19.8144C399.737 19.9944 399.237 20.3243 398.907 20.7943C398.577 21.2643 398.377 21.8844 398.307 22.6344C398.237 23.3944 398.198 24.3144 398.198 25.4044V40.7343Z" fill="#ED1C24"/>
<path d="M517.089 58.4248V76.7749C517.089 77.7949 517.049 78.6049 516.979 79.2149C516.909 79.8349 516.709 80.3148 516.379 80.6748C516.049 81.0348 515.509 81.2948 514.749 81.4348C513.989 81.5748 512.959 81.6549 511.659 81.6549H485.499C480.139 81.6549 475.979 81.6048 473.009 81.4948C470.039 81.3848 467.809 81.0249 466.329 80.4049C464.849 79.7949 463.939 78.8148 463.619 77.4748C463.289 76.1348 463.129 74.2048 463.129 71.6648V5.65485C463.129 4.35485 463.199 3.31484 463.349 2.55484C463.489 1.79484 463.749 1.25487 464.109 0.924866C464.469 0.594866 464.959 0.40486 465.579 0.32486C466.189 0.25486 467.009 0.214844 468.019 0.214844H489.299C490.309 0.214844 491.129 0.25486 491.739 0.32486C492.349 0.39486 492.839 0.594866 493.209 0.924866C493.569 1.25487 493.819 1.79484 493.969 2.55484C494.109 3.31484 494.189 4.34485 494.189 5.65485V44.7448C494.189 46.4148 494.239 47.6948 494.349 48.6048C494.459 49.5048 494.729 50.1748 495.159 50.6148C495.589 51.0448 496.189 51.3048 496.949 51.3748C497.709 51.4448 498.739 51.4848 500.039 51.4848H511.979C513.209 51.4848 514.169 51.5549 514.859 51.7049C515.549 51.8549 516.049 52.1548 516.379 52.6248C516.709 53.0948 516.899 53.8048 516.979 54.7448C517.049 55.6748 517.089 56.9048 517.089 58.4248Z" fill="#ED1C24"/>
<path d="M608.73 60.3827C608.73 64.4327 608.15 67.8227 606.99 70.5327C605.83 73.2427 604.18 75.4326 602.05 77.1026C599.91 78.7726 597.34 79.9427 594.34 80.6327C591.33 81.3227 588.02 81.6626 584.4 81.6626H540.21C539.2 81.6626 538.38 81.6326 537.77 81.5526C537.15 81.4826 536.67 81.2827 536.3 80.9527C535.94 80.6227 535.68 80.0827 535.54 79.3227C535.39 78.5627 535.32 77.5326 535.32 76.2326V5.66266C535.32 4.36266 535.39 3.32265 535.54 2.56265C535.68 1.80265 535.94 1.26265 536.3 0.932648C536.66 0.602648 537.15 0.412642 537.77 0.332642C538.38 0.262642 539.2 0.222656 540.21 0.222656H584.4C588.02 0.222656 591.33 0.562655 594.34 1.25266C597.34 1.94266 599.91 3.11265 602.05 4.78265C604.18 6.45265 605.83 8.63266 606.99 11.3527C608.15 14.0727 608.73 17.4527 608.73 21.5027V60.3827ZM577.68 53.1026V29.9726C577.68 28.8826 577.64 27.7327 577.57 26.5027C577.5 25.2727 577.28 24.1327 576.92 23.0827C576.56 22.0327 576 21.1827 575.24 20.5327C574.48 19.8827 573.38 19.5526 571.93 19.5526C570.7 19.5526 569.72 19.6627 569 19.8827C568.28 20.1027 567.73 20.4426 567.37 20.9126C567.01 21.3826 566.79 22.0326 566.72 22.8626C566.65 23.6926 566.61 24.7227 566.61 25.9527V55.9226C566.61 57.3726 566.66 58.5127 566.77 59.3427C566.88 60.1727 567.15 60.8026 567.58 61.2426C568.01 61.6726 568.63 61.9626 569.43 62.1126C570.23 62.2626 571.28 62.3327 572.58 62.3327C573.81 62.3327 574.77 62.0226 575.46 61.4126C576.15 60.7926 576.65 60.0327 576.98 59.1327C577.31 58.2327 577.51 57.2327 577.58 56.1527C577.64 55.0627 577.68 54.0526 577.68 53.1026Z" fill="#ED1C24"/>
<path d="M679.519 28.7831C676.549 28.7831 674.629 28.4931 673.769 27.9131C672.899 27.3331 672.469 26.6431 672.469 25.8531V23.0331C672.469 21.5831 672.179 20.6631 671.599 20.2631C671.019 19.8631 669.609 19.6331 667.369 19.5531H663.679C662.449 19.5531 661.489 19.5931 660.799 19.6631C660.109 19.7331 659.589 19.9331 659.229 20.2631C658.869 20.5931 658.629 21.1531 658.519 21.9431C658.409 22.7431 658.359 23.8231 658.359 25.2031V30.4131H686.909C689.369 30.4131 691.649 30.9731 693.749 32.0931C695.849 33.2131 697.619 34.6831 699.069 36.4931C700.519 38.3031 701.659 40.3431 702.489 42.6231C703.319 44.9031 703.739 47.2031 703.739 49.5131V62.1131C703.739 66.8931 703.179 70.6031 702.059 73.2431C700.939 75.8831 699.289 77.8031 697.119 79.0031C694.949 80.1931 692.269 80.9031 689.089 81.1231C685.899 81.3431 682.279 81.4531 678.229 81.4531H650.109C645.689 81.4531 642.019 81.0931 639.089 80.3631C636.159 79.6431 633.819 78.3931 632.089 76.6231C630.359 74.8531 629.119 72.4831 628.399 69.5131C627.679 66.5431 627.309 62.7831 627.309 58.2231C627.309 56.9231 627.379 55.8831 627.529 55.1231C627.669 54.3631 627.929 53.8231 628.289 53.4931C628.649 53.1631 629.139 52.9731 629.759 52.8931C630.369 52.8231 631.189 52.7831 632.199 52.7831H651.529C654.569 52.7831 656.519 53.0531 657.389 53.5931C658.259 54.1331 658.689 54.8031 658.689 55.6031V58.6431C658.689 59.4431 658.739 60.0731 658.849 60.5431C658.959 61.0131 659.209 61.3531 659.609 61.5731C660.009 61.7931 660.569 61.9331 661.289 62.0031C662.009 62.0731 662.989 62.1131 664.219 62.1131H667.689C668.919 62.1131 669.859 62.0931 670.509 62.0631C671.159 62.0331 671.649 61.8631 671.979 61.5731C672.309 61.2831 672.499 60.8831 672.579 60.3831C672.649 59.8831 672.689 59.1131 672.689 58.1031V51.2631H644.139C641.679 51.2631 639.419 50.8431 637.349 50.0131C635.289 49.1831 633.509 48.0031 632.029 46.4831C630.549 44.9631 629.389 43.1731 628.559 41.1031C627.729 39.0431 627.309 36.7831 627.309 34.3131V19.5431C627.309 14.7631 627.849 11.0531 628.939 8.41312C630.029 5.77312 631.639 3.85311 633.769 2.65311C635.899 1.46311 638.549 0.753112 641.699 0.533112C644.849 0.313112 648.489 0.203125 652.609 0.203125H680.949C685.359 0.203125 689.039 0.563121 691.969 1.29312C694.899 2.01312 697.239 3.25312 698.969 4.98312C700.709 6.72312 701.939 9.07312 702.659 12.0431C703.379 15.0131 703.749 18.7731 703.749 23.3331C703.749 24.6331 703.679 25.6731 703.529 26.4331C703.379 27.1931 703.129 27.7331 702.769 28.0631C702.409 28.3931 701.919 28.5931 701.309 28.6631C700.689 28.7331 699.879 28.7731 698.869 28.7731H679.519V28.7831Z" fill="#ED1C24"/>
<path d="M11.2079 21.9039C11.1579 15.9839 15.3579 10.9039 21.1479 9.77387C22.2079 9.56387 21.7579 7.95388 20.6979 8.15388C14.1879 9.42388 9.46791 15.2739 9.52791 21.8939C9.54791 22.9839 11.2179 22.9939 11.2079 21.9039Z" fill="white"/>
<path d="M205.348 75.9442C199.528 74.9942 195.148 70.0642 195.028 64.1342C195.008 63.0542 193.328 63.0542 193.348 64.1342C193.478 70.7442 198.348 76.4842 204.898 77.5542C205.958 77.7342 206.408 76.1142 205.348 75.9442Z" fill="white"/>
<path d="M425.098 10.2022C429.268 11.4422 432.518 15.3322 432.918 19.6722C433.018 20.7422 434.698 20.7522 434.598 19.6722C434.118 14.5722 430.478 10.0522 425.548 8.58219C424.508 8.27219 424.058 9.89221 425.098 10.2022Z" fill="white"/>
<path d="M541.609 14.7319C541.609 18.6219 541.609 22.5119 541.609 26.4019C541.609 27.4819 543.289 27.4819 543.289 26.4019C543.289 22.5119 543.289 18.6219 543.289 14.7319C543.289 13.6519 541.609 13.6519 541.609 14.7319Z" fill="white"/>
<path d="M681.579 75.205C685.169 76.895 689.369 75.885 692.329 73.385C695.589 70.635 697.059 66.305 697.649 62.215C697.799 61.155 696.189 60.705 696.029 61.765C695.509 65.395 694.339 69.155 691.629 71.765C689.269 74.025 685.499 75.215 682.419 73.765C681.449 73.295 680.599 74.745 681.579 75.205Z" fill="white"/>
</svg>
