<?xml version="1.0" encoding="utf-8"?>
<!-- Generator: Adobe Illustrator 27.0.0, SVG Export Plug-In . SVG Version: 6.00 Build 0)  -->
<svg version="1.1" id="Слой_1" xmlns="http://www.w3.org/2000/svg" xmlns:xlink="http://www.w3.org/1999/xlink" x="0px" y="0px"
	 viewBox="0 0 1366 768" style="enable-background:new 0 0 1366 768;" xml:space="preserve">
<style type="text/css">
	.st0{fill:#ED1C24;}
	.st1{fill:#FFFFFF;}
</style>
<g>
	<g>
		<g>
			<path class="st0" d="M380.58,541.33h21.28c1.01,0,1.83,0.04,2.44,0.11c0.61,0.07,1.1,0.27,1.47,0.6
				c0.36,0.33,0.61,0.87,0.76,1.63c0.14,0.76,0.22,1.79,0.22,3.1v8.79c0,4.05-0.56,7.31-1.68,9.77c-1.12,2.46-2.7,4.4-4.72,5.81
				c-2.03,1.41-4.45,2.35-7.27,2.82c-2.82,0.47-5.97,0.71-9.45,0.71h-26.38c-4.13,0-7.76-0.11-10.91-0.33
				c-3.15-0.22-5.79-0.92-7.93-2.12c-2.14-1.19-3.75-3.11-4.83-5.76c-1.09-2.64-1.63-6.35-1.63-11.13v-42.78
				c0-4.78,0.54-8.49,1.63-11.13c1.09-2.64,2.7-4.56,4.83-5.76c2.13-1.19,4.78-1.9,7.93-2.12c3.15-0.22,6.79-0.33,10.91-0.33h26.71
				c3.4,0,6.51,0.26,9.34,0.76c2.82,0.51,5.23,1.47,7.22,2.88c1.99,1.41,3.53,3.35,4.61,5.81c1.09,2.46,1.63,5.68,1.63,9.66v8.79
				c0,1.3-0.07,2.33-0.22,3.09c-0.15,0.76-0.4,1.3-0.76,1.63c-0.36,0.33-0.85,0.53-1.47,0.6c-0.62,0.07-1.43,0.11-2.44,0.11h-21.28
				c-1.02,0-1.83-0.03-2.44-0.11c-0.62-0.07-1.1-0.27-1.47-0.6c-0.36-0.33-0.62-0.87-0.76-1.63c-0.15-0.76-0.22-1.79-0.22-3.09
				c0-1.67-0.05-3.06-0.16-4.18c-0.11-1.12-0.42-2.01-0.92-2.66c-0.51-0.65-1.25-1.1-2.23-1.36c-0.98-0.25-2.33-0.38-4.07-0.38
				c-1.23,0-2.21,0.11-2.93,0.33c-0.72,0.22-1.27,0.56-1.63,1.03c-0.36,0.47-0.58,1.12-0.65,1.95c-0.07,0.83-0.11,1.86-0.11,3.09
				v29.97c0,1.59,0.11,2.82,0.33,3.69c0.22,0.87,0.56,1.5,1.03,1.9c0.47,0.4,1.12,0.64,1.95,0.71c0.83,0.07,1.86,0.11,3.09,0.11
				h1.19c1.23,0,2.19-0.23,2.88-0.71c0.69-0.47,1.19-1.1,1.52-1.9c0.33-0.8,0.53-1.67,0.6-2.61c0.07-0.94,0.11-1.92,0.11-2.93v-0.43
				c0-1.3,0.07-2.34,0.22-3.1c0.14-0.76,0.4-1.3,0.76-1.63c0.36-0.33,0.85-0.52,1.47-0.6C378.75,541.36,379.57,541.33,380.58,541.33
				z"/>
			<path class="st0" d="M426.4,498.66c0-1.3,0.07-2.34,0.22-3.1c0.14-0.76,0.4-1.3,0.76-1.63c0.36-0.33,0.85-0.52,1.47-0.6
				c0.61-0.07,1.43-0.11,2.44-0.11h21.28c1.01,0,1.83,0.04,2.44,0.11c0.61,0.07,1.1,0.27,1.47,0.6c0.36,0.33,0.61,0.87,0.76,1.63
				c0.14,0.76,0.22,1.79,0.22,3.1v27.36h9.01v-27.36c0-1.3,0.07-2.34,0.22-3.1c0.14-0.76,0.4-1.3,0.76-1.63
				c0.36-0.33,0.85-0.52,1.47-0.6c0.61-0.07,1.43-0.11,2.44-0.11h21.28c1.01,0,1.83,0.04,2.44,0.11c0.61,0.07,1.1,0.27,1.47,0.6
				c0.36,0.33,0.61,0.87,0.76,1.63c0.14,0.76,0.22,1.79,0.22,3.1v70.57c0,1.3-0.07,2.33-0.22,3.09c-0.15,0.76-0.4,1.3-0.76,1.63
				c-0.36,0.33-0.85,0.53-1.47,0.6c-0.62,0.07-1.43,0.11-2.44,0.11h-21.28c-1.02,0-1.83-0.03-2.44-0.11
				c-0.62-0.07-1.1-0.27-1.47-0.6c-0.36-0.33-0.62-0.87-0.76-1.63c-0.15-0.76-0.22-1.79-0.22-3.09V549.9h-9.01v19.33
				c0,1.3-0.07,2.33-0.22,3.09c-0.15,0.76-0.4,1.3-0.76,1.63c-0.36,0.33-0.85,0.53-1.47,0.6c-0.62,0.07-1.43,0.11-2.44,0.11h-21.28
				c-1.02,0-1.83-0.03-2.44-0.11c-0.62-0.07-1.1-0.27-1.47-0.6c-0.36-0.33-0.62-0.87-0.76-1.63c-0.15-0.76-0.22-1.79-0.22-3.09
				V498.66z"/>
			<path class="st0" d="M558.64,535.25c0,1.59-0.04,2.84-0.11,3.75c-0.07,0.91-0.25,1.59-0.54,2.06c-0.29,0.47-0.72,0.78-1.3,0.92
				c-0.58,0.14-1.34,0.22-2.28,0.22h-3.69v9.77c0,1.52,0.16,2.48,0.49,2.88c0.33,0.4,0.89,0.6,1.68,0.6h2.71
				c0.94,0,1.54-0.41,1.79-1.25c0.25-0.83,0.38-1.75,0.38-2.77v-3.47c0-1.3,0.05-2.34,0.16-3.1c0.11-0.76,0.34-1.3,0.71-1.63
				c0.36-0.33,0.85-0.52,1.46-0.6c0.61-0.07,1.43-0.11,2.44-0.11h19.98c1.01,0,1.83,0.04,2.44,0.11c0.61,0.07,1.1,0.27,1.47,0.6
				c0.36,0.33,0.61,0.87,0.76,1.63c0.14,0.76,0.22,1.79,0.22,3.1v10.64c0,2.03-0.05,4-0.16,5.92c-0.11,1.92-0.49,3.64-1.14,5.16
				c-0.65,1.52-1.68,2.73-3.09,3.64c-1.41,0.91-3.38,1.36-5.92,1.36h-52.55c-1.02,0-1.83-0.03-2.44-0.11
				c-0.62-0.07-1.1-0.27-1.47-0.6c-0.36-0.33-0.62-0.87-0.76-1.63c-0.15-0.76-0.22-1.79-0.22-3.09v-70.57c0-1.3,0.07-2.34,0.22-3.1
				c0.14-0.76,0.4-1.3,0.76-1.63c0.36-0.33,0.85-0.52,1.47-0.6c0.61-0.07,1.43-0.11,2.44-0.11h52.55c2.24,0,4.07,0.43,5.48,1.3
				s2.48,2.05,3.2,3.53c0.72,1.48,1.21,3.15,1.47,5c0.25,1.84,0.38,3.74,0.38,5.7v9.99c0,1.3-0.09,2.33-0.27,3.09
				c-0.18,0.76-0.47,1.3-0.87,1.63c-0.4,0.33-0.92,0.53-1.58,0.6c-0.65,0.07-1.48,0.11-2.5,0.11h-17.81c-1.52,0-2.71-0.05-3.58-0.16
				c-0.87-0.11-1.52-0.29-1.96-0.54c-0.43-0.25-0.72-0.63-0.87-1.14c-0.15-0.51-0.22-1.19-0.22-2.06v-4.67
				c0-1.45-0.33-2.31-0.98-2.6c-0.65-0.29-1.99-0.43-4.02-0.43c-1.16,0-1.83,0.26-2.01,0.76c-0.18,0.51-0.27,1.23-0.27,2.17v9.01
				c1.74,0,3.15,0.04,4.23,0.11c1.09,0.07,1.9,0.27,2.44,0.6c0.54,0.33,0.9,0.78,1.09,1.36c0.18,0.58,0.27,1.34,0.27,2.28
				c0,0.8-0.02,1.7-0.05,2.72C558.66,532.57,558.64,533.8,558.64,535.25z"/>
			<path class="st0" d="M606.3,498.66c0-1.3,0.07-2.34,0.22-3.1c0.15-0.76,0.4-1.3,0.76-1.63c0.36-0.33,0.85-0.52,1.47-0.6
				c0.61-0.07,1.43-0.11,2.44-0.11h43c4.13,0,7.76,0.11,10.91,0.33c3.15,0.22,5.79,0.92,7.93,2.12c2.13,1.19,3.75,3.11,4.83,5.76
				c1.09,2.64,1.63,6.35,1.63,11.13v25.41c0,3.47-0.85,6.57-2.55,9.28c-1.7,2.72-4.18,4.72-7.44,6.03l9.66,15.96v0.65
				c0,2.32-0.34,3.69-1.03,4.13c-0.69,0.43-1.97,0.65-3.85,0.65h-20.3c-0.94,0-1.72-0.03-2.34-0.11c-0.62-0.07-1.12-0.25-1.52-0.54
				c-0.4-0.29-0.67-0.74-0.81-1.36c-0.15-0.61-0.22-1.5-0.22-2.66v-0.76l-7.71-14.66h-3.8v14.66c0,1.3-0.07,2.33-0.22,3.09
				c-0.15,0.76-0.4,1.3-0.76,1.63c-0.36,0.33-0.85,0.53-1.47,0.6c-0.62,0.07-1.43,0.11-2.44,0.11h-21.5c-1.01,0-1.83-0.03-2.44-0.11
				c-0.62-0.07-1.1-0.27-1.47-0.6c-0.36-0.33-0.62-0.87-0.76-1.63c-0.15-0.76-0.22-1.79-0.22-3.09V498.66z M637.57,533.73h10.86
				v-14.77c0-1.37-0.04-2.48-0.11-3.31c-0.07-0.83-0.29-1.48-0.65-1.95c-0.36-0.47-0.92-0.78-1.68-0.92
				c-0.76-0.14-1.83-0.22-3.2-0.22c-1.3,0-2.3,0.09-2.99,0.27c-0.69,0.18-1.19,0.51-1.52,0.98c-0.33,0.47-0.53,1.09-0.6,1.84
				c-0.07,0.76-0.11,1.68-0.11,2.77V533.73z"/>
			<path class="st0" d="M722.26,574.66h-19.43c-1.01,0-1.83-0.03-2.44-0.11c-0.62-0.07-1.1-0.27-1.47-0.6
				c-0.36-0.33-0.62-0.87-0.76-1.63c-0.15-0.76-0.22-1.79-0.22-3.09v-56.89c0-3.98,0.56-7.22,1.68-9.72c1.12-2.5,2.7-4.45,4.72-5.86
				c2.03-1.41,4.45-2.35,7.27-2.82c2.82-0.47,5.97-0.71,9.45-0.71h26.82c4.13,0,7.76,0.11,10.91,0.33c3.15,0.22,5.79,0.92,7.93,2.12
				c2.13,1.19,3.75,3.11,4.83,5.76c1.09,2.64,1.63,6.35,1.63,11.13v56.68c0,1.3-0.07,2.33-0.22,3.09c-0.15,0.76-0.4,1.3-0.76,1.63
				c-0.36,0.33-0.85,0.53-1.47,0.6c-0.62,0.07-1.43,0.11-2.44,0.11h-19.22c-1.52,0-2.75-0.11-3.69-0.33
				c-0.94-0.22-1.65-0.54-2.12-0.98c-0.47-0.43-0.78-0.99-0.92-1.68c-0.15-0.69-0.22-1.47-0.22-2.33V560H729.2v9.34
				c0,0.87-0.07,1.65-0.22,2.33c-0.15,0.69-0.45,1.25-0.92,1.68c-0.47,0.43-1.18,0.76-2.12,0.98
				C725.01,574.55,723.78,574.66,722.26,574.66z M729.2,533.73h12.92v-14.77c0-1.16-0.02-2.15-0.05-2.99
				c-0.04-0.83-0.22-1.5-0.54-2.01c-0.33-0.5-0.83-0.87-1.52-1.09c-0.69-0.22-1.65-0.33-2.88-0.33h-2.71c-1.3,0-2.3,0.09-2.99,0.27
				c-0.69,0.18-1.19,0.51-1.52,0.98c-0.33,0.47-0.53,1.09-0.6,1.84c-0.07,0.76-0.11,1.68-0.11,2.77V533.73z"/>
			<path class="st0" d="M848.09,551.42v18.35c0,1.02-0.04,1.83-0.11,2.44c-0.07,0.62-0.27,1.1-0.6,1.46
				c-0.33,0.36-0.87,0.62-1.63,0.76c-0.76,0.14-1.79,0.22-3.09,0.22H816.5c-5.36,0-9.52-0.05-12.49-0.16
				c-2.97-0.11-5.2-0.47-6.68-1.09c-1.48-0.61-2.39-1.59-2.71-2.93c-0.33-1.34-0.49-3.27-0.49-5.81v-66.01c0-1.3,0.07-2.34,0.22-3.1
				c0.14-0.76,0.4-1.3,0.76-1.63c0.36-0.33,0.85-0.52,1.47-0.6c0.61-0.07,1.43-0.11,2.44-0.11h21.28c1.01,0,1.83,0.04,2.44,0.11
				c0.61,0.07,1.1,0.27,1.47,0.6c0.36,0.33,0.61,0.87,0.76,1.63c0.14,0.76,0.22,1.79,0.22,3.1v39.09c0,1.67,0.05,2.95,0.16,3.86
				c0.11,0.9,0.38,1.57,0.81,2.01c0.43,0.43,1.03,0.69,1.79,0.76c0.76,0.07,1.79,0.11,3.09,0.11h11.94c1.23,0,2.19,0.07,2.88,0.22
				c0.69,0.15,1.19,0.45,1.52,0.92c0.33,0.47,0.52,1.18,0.6,2.12C848.05,548.67,848.09,549.9,848.09,551.42z"/>
			<path class="st0" d="M939.73,553.38c0,4.05-0.58,7.44-1.74,10.15c-1.16,2.71-2.81,4.9-4.94,6.57c-2.14,1.67-4.71,2.84-7.71,3.53
				c-3.01,0.69-6.32,1.03-9.94,1.03h-44.19c-1.01,0-1.83-0.03-2.44-0.11c-0.62-0.07-1.1-0.27-1.47-0.6
				c-0.36-0.33-0.62-0.87-0.76-1.63c-0.15-0.76-0.22-1.79-0.22-3.09v-70.57c0-1.3,0.07-2.34,0.22-3.1c0.14-0.76,0.4-1.3,0.76-1.63
				c0.36-0.33,0.85-0.52,1.47-0.6c0.61-0.07,1.43-0.11,2.44-0.11h44.19c3.62,0,6.93,0.34,9.94,1.03c3,0.69,5.57,1.86,7.71,3.53
				c2.13,1.67,3.78,3.85,4.94,6.57c1.16,2.72,1.74,6.1,1.74,10.15V553.38z M908.68,546.1v-23.13c0-1.09-0.04-2.24-0.11-3.47
				c-0.07-1.23-0.29-2.37-0.65-3.42c-0.36-1.05-0.92-1.9-1.68-2.55c-0.76-0.65-1.86-0.98-3.31-0.98c-1.23,0-2.21,0.11-2.93,0.33
				c-0.72,0.22-1.27,0.56-1.63,1.03c-0.36,0.47-0.58,1.12-0.65,1.95c-0.07,0.83-0.11,1.86-0.11,3.09v29.97
				c0,1.45,0.05,2.59,0.16,3.42c0.11,0.83,0.38,1.46,0.81,1.9c0.43,0.43,1.05,0.72,1.85,0.87c0.8,0.15,1.85,0.22,3.15,0.22
				c1.23,0,2.19-0.31,2.88-0.92c0.69-0.62,1.19-1.38,1.52-2.28c0.33-0.9,0.53-1.9,0.6-2.98
				C908.64,548.06,908.68,547.05,908.68,546.1z"/>
			<path class="st0" d="M1010.52,521.78c-2.97,0-4.89-0.29-5.75-0.87c-0.87-0.58-1.3-1.27-1.3-2.06v-2.82
				c0-1.45-0.29-2.37-0.87-2.77c-0.58-0.4-1.99-0.63-4.23-0.71h-3.69c-1.23,0-2.19,0.04-2.88,0.11c-0.69,0.07-1.21,0.27-1.57,0.6
				c-0.36,0.33-0.6,0.89-0.71,1.68c-0.11,0.8-0.16,1.88-0.16,3.26v5.21h28.55c2.46,0,4.74,0.56,6.84,1.68
				c2.1,1.12,3.87,2.59,5.32,4.4c1.45,1.81,2.59,3.85,3.42,6.13c0.83,2.28,1.25,4.58,1.25,6.89v12.6c0,4.78-0.56,8.49-1.68,11.13
				c-1.12,2.64-2.77,4.56-4.94,5.76c-2.17,1.19-4.85,1.9-8.03,2.12c-3.19,0.22-6.81,0.33-10.86,0.33h-28.12
				c-4.42,0-8.09-0.36-11.02-1.09c-2.93-0.72-5.27-1.97-7-3.74s-2.97-4.14-3.69-7.11c-0.72-2.97-1.09-6.73-1.09-11.29
				c0-1.3,0.07-2.34,0.22-3.1c0.14-0.76,0.4-1.3,0.76-1.63c0.36-0.33,0.85-0.52,1.47-0.6c0.61-0.07,1.43-0.11,2.44-0.11h19.33
				c3.04,0,4.99,0.27,5.86,0.81s1.3,1.21,1.3,2.01v3.04c0,0.8,0.05,1.43,0.16,1.9c0.11,0.47,0.36,0.81,0.76,1.03
				c0.4,0.22,0.96,0.36,1.68,0.43c0.72,0.07,1.7,0.11,2.93,0.11h3.47c1.23,0,2.17-0.02,2.82-0.05c0.65-0.03,1.14-0.2,1.47-0.49
				c0.33-0.29,0.52-0.69,0.6-1.19c0.07-0.5,0.11-1.27,0.11-2.28v-6.84h-28.55c-2.46,0-4.72-0.42-6.79-1.25
				c-2.06-0.83-3.84-2.01-5.32-3.53c-1.48-1.52-2.64-3.31-3.47-5.38c-0.83-2.06-1.25-4.32-1.25-6.79v-14.77
				c0-4.78,0.54-8.49,1.63-11.13c1.09-2.64,2.7-4.56,4.83-5.76c2.13-1.19,4.78-1.9,7.93-2.12c3.15-0.22,6.79-0.33,10.91-0.33h28.34
				c4.41,0,8.09,0.36,11.02,1.09c2.93,0.72,5.27,1.96,7,3.69c1.74,1.74,2.97,4.09,3.69,7.06c0.72,2.97,1.09,6.73,1.09,11.29
				c0,1.3-0.07,2.34-0.22,3.1c-0.15,0.76-0.4,1.3-0.76,1.63c-0.36,0.33-0.85,0.53-1.46,0.6c-0.62,0.07-1.43,0.11-2.44,0.11H1010.52z
				"/>
		</g>
		<g>
			<g>
				<path class="st1" d="M342.21,514.9c-0.05-5.92,4.15-11,9.94-12.13c1.06-0.21,0.61-1.82-0.45-1.62
					c-6.51,1.27-11.23,7.12-11.17,13.74C340.55,515.98,342.22,515.99,342.21,514.9L342.21,514.9z"/>
			</g>
		</g>
		<g>
			<g>
				<path class="st1" d="M536.35,568.94c-5.82-0.95-10.2-5.88-10.32-11.81c-0.02-1.08-1.7-1.08-1.68,0
					c0.13,6.61,5,12.35,11.55,13.42C536.96,570.73,537.41,569.11,536.35,568.94L536.35,568.94z"/>
			</g>
		</g>
		<g>
			<g>
				<path class="st1" d="M756.1,503.2c4.17,1.24,7.42,5.13,7.82,9.47c0.1,1.07,1.78,1.08,1.68,0c-0.48-5.1-4.12-9.62-9.05-11.09
					C755.51,501.27,755.06,502.89,756.1,503.2L756.1,503.2z"/>
			</g>
		</g>
		<g>
			<g>
				<path class="st1" d="M872.61,507.73c0,3.89,0,7.78,0,11.67c0,1.08,1.68,1.08,1.68,0c0-3.89,0-7.78,0-11.67
					C874.29,506.65,872.61,506.65,872.61,507.73L872.61,507.73z"/>
			</g>
		</g>
		<g>
			<g>
				<path class="st1" d="M1012.58,568.2c3.59,1.69,7.79,0.68,10.75-1.82c3.26-2.75,4.73-7.08,5.32-11.17
					c0.15-1.06-1.46-1.51-1.62-0.45c-0.52,3.63-1.69,7.39-4.4,10c-2.36,2.26-6.13,3.45-9.21,2
					C1012.45,566.29,1011.6,567.74,1012.58,568.2L1012.58,568.2z"/>
			</g>
		</g>
	</g>
	<g>
		<g>
			<g>
				<path class="st0" d="M621.5,312.37c-7.37-1.81-14.74,2.1-20.76,6.02c-5.34,3.48-10.2,7.7-14.45,12.44
					c-9.3,10.38-15.71,22.76-20.61,35.72c-2.89,7.64-5.22,15.48-7.44,23.34c-0.66,2.36,0.82,5.21,3.28,5.77
					c2.49,0.57,5.06-0.75,5.77-3.28c1.86-6.6,3.8-13.19,6.09-19.66c0.54-1.52,1.1-3.04,1.68-4.55c0.3-0.79,0.61-1.58,0.93-2.36
					c0.14-0.36,0.29-0.71,0.43-1.07c0.12-0.28,0.23-0.57,0.35-0.85c-0.17,0.41-0.15,0.36,0.07-0.15c1.35-3.1,2.78-6.16,4.37-9.15
					c1.43-2.7,2.98-5.34,4.66-7.9c0.73-1.12,1.49-2.22,2.27-3.31c0.47-0.65,0.95-1.29,1.43-1.93c-0.53,0.71-0.11,0.14,0,0
					c0.33-0.42,0.66-0.84,1-1.25c1.86-2.27,3.84-4.44,5.94-6.49c1-0.97,2.03-1.91,3.09-2.82c0.55-0.48,1.11-0.94,1.68-1.4
					c-0.01,0.01,1-0.8,0.46-0.37c-0.43,0.34,0.68-0.51,0.79-0.59c2.67-1.97,5.49-3.73,8.45-5.22c0.24-0.12,0.48-0.24,0.72-0.36
					c0.15-0.07,1.73-0.79,0.89-0.43c0.81-0.34,1.65-0.64,2.51-0.87c0.42-0.12,0.85-0.21,1.28-0.31c1.27-0.29-0.82-0.02,0.47-0.06
					c0.43-0.02,0.86,0,1.29-0.02c0.56,0.05,0.57,0.04,0.03-0.03c0.28,0.05,0.57,0.11,0.85,0.19c2.38,0.58,5.2-0.76,5.77-3.28
					C625.33,315.72,624.05,313,621.5,312.37L621.5,312.37z"/>
			</g>
		</g>
		<g>
			<path class="st0" d="M563.56,378.1c-6.8-0.38-13.75-0.48-20.27,1.48c-8.8,2.65-16.37,9.13-20.35,17.41
				c-2.92,6.1-3.92,12.96-4.14,19.72c-0.25,7.49,0.5,15.35,4.5,21.69c3.18,5.04,8.15,8.69,13.29,11.72
				c11.64,6.87,24.81,11.21,38.28,12.25c7.34,0.57,15.15,0.04,21.33-3.97c7.61-4.94,11.23-14.13,13.4-22.94
				c1.31-5.33,2.28-10.83,1.71-16.29c-1.12-10.8-8.18-20.28-16.9-26.74c-8.72-6.46-19.05-10.33-29.26-14.02"/>
		</g>
		<g>
			<g>
				<path class="st1" d="M543.15,403.47c-2.48,5.72-5,11.79-3.97,18.15c0.92,5.68,4.84,10.23,8.52,14.4
					c1.28,1.45,3.39-0.68,2.12-2.12c-3.25-3.69-6.72-7.64-7.67-12.63c-1.06-5.59,1.41-11.27,3.59-16.29
					C546.5,403.23,543.91,401.7,543.15,403.47L543.15,403.47z"/>
			</g>
		</g>
		<g>
			<g>
				<path class="st0" d="M590.86,302.8c-1.14,1.33-2.35,2.61-3.62,3.81c-0.63,0.6-1.28,1.18-1.95,1.74c-0.33,0.28-0.67,0.56-1,0.83
					c-0.14,0.12-0.29,0.23-0.44,0.35c0.49-0.39,0.3-0.23-0.08,0.05c-2.78,2.06-5.77,3.84-8.9,5.33c-0.39,0.19-0.78,0.37-1.18,0.55
					c-0.18,0.08-1.35,0.57-0.81,0.35c0.54-0.22-0.04,0.01-0.13,0.05c-0.23,0.09-0.46,0.18-0.69,0.27c-0.46,0.18-0.93,0.35-1.4,0.52
					c-1.64,0.59-3.31,1.11-4.99,1.57c-1.69,0.45-3.4,0.84-5.12,1.16c-0.86,0.16-1.73,0.3-2.59,0.43c-0.93,0.14,0.7-0.08-0.24,0.03
					c-0.5,0.06-0.99,0.12-1.49,0.17c-3.54,0.37-7.11,0.46-10.67,0.3c-1.73-0.08-3.47-0.22-5.19-0.42c-0.27-0.03-1.38-0.19-0.55-0.07
					c-0.51-0.08-1.02-0.15-1.53-0.23c-1.02-0.16-2.04-0.35-3.05-0.55c-4.11-0.81-8.16-1.91-12.14-3.23
					c-1.95-0.65-3.89-1.36-5.81-2.11c-0.96-0.38-1.92-0.76-2.87-1.16c0.69,0.29-0.3-0.13-0.51-0.22c-0.54-0.24-1.08-0.47-1.62-0.72
					c-8.65-3.88-16.92-8.57-25.04-13.46c0.56,2.14,1.12,4.28,1.68,6.42c1.71-3.99,3.91-7.7,6.5-11.18c0.7-0.94-0.43,0.52,0.03-0.04
					c0.15-0.18,0.3-0.37,0.45-0.56c0.34-0.42,0.68-0.83,1.04-1.24c0.7-0.81,1.43-1.61,2.17-2.38c1.5-1.55,3.08-3.01,4.73-4.39
					c0.46-0.38,0.93-0.76,1.4-1.13c-0.81,0.65,0.22-0.16,0.48-0.36c0.92-0.68,1.85-1.33,2.8-1.96c1.81-1.19,3.67-2.29,5.59-3.29
					c0.91-0.47,1.82-0.93,2.75-1.36c0.49-0.23,0.98-0.45,1.48-0.67c0.14-0.06,0.86-0.36,0.27-0.12c-0.63,0.26,0.48-0.19,0.61-0.24
					c2.01-0.8,4.06-1.5,6.14-2.11c2.07-0.6,4.18-1.1,6.3-1.49c0.53-0.1,1.06-0.19,1.59-0.27c0.24-0.04,0.47-0.07,0.71-0.11
					c0.98-0.15-0.15,0.05-0.18,0.02c0.12,0.12,1.45-0.17,1.6-0.19c0.59-0.06,1.19-0.12,1.78-0.16c2.18-0.16,4.37-0.21,6.55-0.14
					c1.12,0.03,2.24,0.09,3.36,0.18c0.59,0.05,1.18,0.1,1.77,0.16c0.33,0.03,0.65,0.07,0.98,0.11c0.13,0.02,1.22,0.17,0.55,0.07
					c-0.74-0.11,0.53,0.08,0.55,0.09c0.26,0.04,0.52,0.08,0.78,0.12c0.52,0.09,1.03,0.18,1.55,0.27c1.22,0.23,2.44,0.49,3.65,0.79
					c2.36,0.57,4.68,1.26,6.97,2.05c0.99,0.34,1.98,0.71,2.95,1.09c0.31,0.12,0.61,0.24,0.91,0.37c0.23,0.09,1.05,0.44,0.15,0.06
					c0.6,0.26,1.21,0.52,1.8,0.8c2.16,0.98,4.27,2.06,6.34,3.22c2.31,1.29,4.55,2.69,6.73,4.18c1.09,0.75,2.17,1.52,3.23,2.31
					c0.21,0.16,0.42,0.32,0.63,0.48c-0.84-0.63,0.22,0.17,0.31,0.24c0.52,0.41,1.04,0.83,1.55,1.25c4.19,3.46,8.08,7.28,11.64,11.38
					c1.61,1.86,5,1.78,6.63,0c1.82-1.98,1.72-4.65,0-6.63c-13.21-15.22-31.4-27.05-51.4-30.7c-9.82-1.79-19.8-1.7-29.53,0.63
					c-9,2.15-17.72,6.14-25.14,11.69c-8.52,6.37-15.65,14.59-19.87,24.43c-1.01,2.36-0.71,4.98,1.68,6.42
					c14.94,9,30.69,17.49,47.84,21.35c15.58,3.51,31.9,2.82,46.69-3.45c7.78-3.3,14.92-8.27,20.44-14.71c1.6-1.86,1.96-4.83,0-6.63
					C595.74,301.19,592.57,300.81,590.86,302.8L590.86,302.8z"/>
			</g>
		</g>
		<g>
			<g>
				<path class="st0" d="M750.69,441.15c-3.14-19.86-18.59-35.53-35.15-45.57c-9.57-5.8-19.9-10.2-30.16-14.64
					c-5.14-2.22-10.27-4.46-15.31-6.9c-2.29-1.11-4.57-2.25-6.8-3.49c-1.04-0.58-2.07-1.19-3.07-1.83c-0.5-0.32-1-0.65-1.48-0.99
					c-0.27-0.19-0.54-0.38-0.8-0.57c-0.27-0.19-1.28-0.74-0.18-0.13c-1.06-0.59-2.05-1.74-2.89-2.61c-0.45-0.47-0.86-0.96-1.29-1.44
					c-0.84-0.95,0.44,0.66-0.01,0c-0.22-0.32-0.45-0.63-0.66-0.96c-0.34-0.52-0.66-1.05-0.94-1.6c-0.06-0.12-0.27-0.71-0.36-0.74
					c0.26,0.08,0.44,1.17,0.03,0.04c-0.19-0.52-0.35-1.05-0.49-1.58c-0.11-0.44-0.09-1.27-0.33-1.63c0.34,0.51,0.1,1.06,0.06,0.41
					c-0.02-0.33-0.05-0.66-0.07-0.99c-0.02-0.6-0.01-1.21,0.03-1.81c0.02-0.25,0.11-0.57,0.08-0.81c0.08,0.6-0.17,1.03,0.02,0.12
					c0.11-0.52,0.25-1.04,0.42-1.55c0.04-0.13,0.23-0.5,0.22-0.6c-0.32,0.72-0.39,0.9-0.22,0.53c0.06-0.14,0.13-0.29,0.21-0.43
					c0.24-0.47,0.53-0.9,0.8-1.35c0.56-0.91-0.66,0.68-0.16,0.2c0.19-0.18,0.35-0.39,0.53-0.58c0.18-0.18,0.43-0.34,0.58-0.54
					c0.3-0.26,0.15-0.15-0.45,0.32c0.17-0.13,0.35-0.25,0.53-0.37c3.14-2.1,3.69-7.13,0-9.11c-3.27-1.76-6.45-3.67-9.52-5.76
					c-1.5-1.02-2.96-2.11-4.43-3.19c-0.3-0.23-0.24-0.18,0.17,0.13c-0.18-0.14-0.36-0.28-0.54-0.42c-0.36-0.28-0.71-0.57-1.07-0.85
					c-0.77-0.62-1.52-1.25-2.27-1.89c-1.24,3-2.49,6.01-3.73,9.01c13.94-0.37,27.35-4.4,40.95-7.01c1.47-0.28,2.94-0.55,4.42-0.79
					c0.88-0.14,1.77-0.31,2.66-0.4c-1.11,0.12-0.31,0.04-0.07,0.01c0.59-0.07,1.18-0.14,1.77-0.21c3.24-0.35,6.51-0.53,9.77-0.46
					c6.31,0.13,13.11,2.26,19.29,0.15c3.44-1.17,6.37-3.37,8.25-6.52c1.69-2.82,2.34-6.16,2.47-9.41c0.12-2.96-0.31-5.96-0.83-8.86
					c-0.55-3.04-1.24-6.26-2.96-8.89c-4.13-6.34-12.21-7.8-19.07-5.48c-3.32,1.12-6.36,2.86-9.45,4.47
					c-0.7,0.37-1.41,0.73-2.13,1.06c-0.32,0.15-0.65,0.3-0.98,0.44c1.2-0.49-0.14,0.04-0.33,0.11c-1.53,0.58-3.11,1.05-4.7,1.43
					c-0.9,0.21-1.81,0.38-2.73,0.54c-0.99,0.18-0.05,0.02,0.13,0c-0.56,0.09-1.14,0.13-1.7,0.18c-1.78,0.15-3.56,0.18-5.34,0.09
					c-0.9-0.05-1.88-0.05-2.77-0.24c1.13,0.24,0.39,0.06,0.13,0.01c-0.56-0.1-1.12-0.19-1.68-0.3c-1.75-0.35-3.47-0.82-5.15-1.42
					c-2.08-0.74-3.93-1.6-6.2-1.61c-2.71-0.01-4.99,1.44-6.85,3.27c-2.91,2.86-5.77,5.78-8.65,8.67c2.49,0,4.98,0,7.46,0
					c-0.28-0.26-0.52-0.58-0.81-0.83c-0.41-0.34,0.36,0.35,0.32,0.43c0.01-0.02-0.31-0.46-0.36-0.54c-0.2-0.32-0.37-0.66-0.55-1
					c-0.56-1.07,0.3,0.92-0.11-0.26c-0.53-1.5-0.92-3.04-1.33-4.58c-1.04-3.86-2.55-7.74-5.68-10.4c-1.61-1.37-3.36-2.48-5.15-3.58
					c-0.76-0.47-1.49-0.96-2.23-1.46c-0.5-0.34,0.32,0.22,0.32,0.25c0-0.01-0.5-0.43-0.57-0.5c-0.37-0.34-0.7-0.71-1.04-1.08
					c-0.62-0.68,0.54,0.82-0.18-0.27c-0.24-0.36-0.46-0.73-0.67-1.11c-0.11-0.21-0.31-0.89-0.5-1c0.34,0.21,0.33,0.88,0.1,0.22
					c-0.1-0.3-0.21-0.59-0.31-0.89c-0.26-0.78-0.46-1.58-0.63-2.39c-0.09-0.44-0.16-0.88-0.24-1.32c-0.14-0.74,0.1,1.01,0.03,0.26
					c-0.02-0.25-0.06-0.51-0.08-0.76c-0.17-1.81-0.2-3.63-0.13-5.44c0.03-0.87,0.09-1.73,0.17-2.59c0.03-0.37,0.08-0.74,0.11-1.11
					c0.1-0.95-0.02,0.17-0.05,0.3c0.05-0.24,0.07-0.49,0.11-0.73c0.55-3.54,1.48-7.01,2.75-10.36c0.15-0.4,0.32-0.8,0.48-1.21
					c0.21-0.56-0.17,0.4-0.17,0.4c0.08-0.23,0.2-0.47,0.3-0.68c0.35-0.79,0.72-1.58,1.11-2.35c0.81-1.61,1.69-3.19,2.65-4.71
					c0.46-0.74,0.94-1.47,1.44-2.19c0.47-0.69,1.36-1.5,1.65-2.27c-0.01,0.02-0.62,0.78-0.25,0.33c0.12-0.15,0.23-0.29,0.35-0.44
					c0.27-0.34,0.55-0.68,0.83-1.02c0.6-0.72,1.22-1.42,1.86-2.12c1.23-1.34,2.52-2.62,3.87-3.84c0.65-0.59,1.31-1.16,1.99-1.72
					c0.34-0.28,0.68-0.55,1.02-0.83c0.1-0.08,0.61-0.48,0.06-0.05c-0.65,0.51,0.32-0.24,0.36-0.27c2.92-2.17,6.03-4.06,9.29-5.65
					c0.88-0.43,1.78-0.83,2.68-1.23c0.55-0.25-0.25,0.1-0.29,0.12c0.25-0.12,0.53-0.21,0.78-0.32c0.52-0.21,1.04-0.41,1.57-0.6
					c1.84-0.68,3.71-1.27,5.6-1.79c1.96-0.53,3.94-0.98,5.94-1.34c0.81-0.15,1.88-0.53,2.7-0.44c-0.9-0.1-0.57,0.07-0.15,0.02
					c0.21-0.03,0.42-0.05,0.63-0.08c0.56-0.07,1.12-0.12,1.68-0.18c4.07-0.38,8.17-0.44,12.25-0.19c0.92,0.06,1.83,0.13,2.75,0.21
					c0.49,0.05,0.98,0.1,1.48,0.15c0.28,0.03,0.56,0.06,0.84,0.1c0.13,0.02,1.06,0.14,0.35,0.04c-0.71-0.1,0.76,0.12,0.98,0.15
					c0.49,0.08,0.98,0.16,1.47,0.24c1.05,0.18,2.09,0.38,3.13,0.6c3.89,0.83,7.72,1.92,11.46,3.27c0.84,0.3,1.67,0.62,2.5,0.95
					c0.41,0.16,0.83,0.33,1.24,0.5c0.12,0.05,0.72,0.32,0.07,0.03c-0.74-0.33,0.27,0.12,0.42,0.19c1.63,0.72,3.24,1.49,4.83,2.3
					c3.28,1.69,6.46,3.59,9.5,5.7c0.73,0.51,1.46,1.02,2.17,1.55c0.31,0.23,0.61,0.46,0.92,0.69c0.83,0.62-0.15-0.06-0.16-0.13
					c0.03,0.12,0.49,0.39,0.6,0.47c1.44,1.15,2.84,2.35,4.2,3.59c2.66,2.44,5.15,5.06,7.44,7.85c0.28,0.34,0.56,0.69,0.83,1.03
					c0.11,0.13,0.22,0.34,0.35,0.45c-0.7-0.58-0.38-0.5-0.13-0.17c0.56,0.76,1.13,1.52,1.67,2.3c1.04,1.51,2.03,3.05,2.95,4.64
					c0.89,1.53,1.72,3.1,2.49,4.7c1.21,2.49,4.95,3.35,7.22,1.89c2.56-1.65,3.18-4.56,1.89-7.22c-6.92-14.3-18.65-26.03-32.26-34.06
					c-14.49-8.55-31.53-13.19-48.38-12.71c-17.18,0.49-34.05,6.37-46.77,18.13c-11.62,10.73-19.36,25.94-19.88,41.86
					c-0.13,4.08,0.16,8.37,1.43,12.27c1.52,4.67,4.25,8.37,8.31,11.13c1.52,1.04,3.14,1.92,4.66,2.97c0.83,0.57-0.1-0.12-0.17-0.14
					c0.12,0.03,0.51,0.44,0.56,0.49c0.32,0.3,0.6,0.63,0.91,0.95c0.43,0.45-0.33-0.36-0.3-0.39c0,0,0.32,0.49,0.36,0.56
					c0.23,0.38,0.43,0.78,0.63,1.17c0.44,0.86-0.17-0.29-0.13-0.34c-0.01,0.01,0.25,0.67,0.24,0.63c0.13,0.37,0.26,0.75,0.37,1.13
					c0.25,0.82,0.47,1.65,0.69,2.48c0.52,1.99,1.12,3.89,1.94,5.78c0.78,1.8,1.93,3.48,3.38,4.82c2.09,1.94,5.38,2.08,7.46,0
					c2.39-2.39,4.77-4.78,7.16-7.17c0.54-0.54,1.08-1.1,1.63-1.63c0.22-0.22,1.18-0.91,0.07-0.15c0.36-0.25,0.66-0.17-0.27,0.05
					c-0.18,0.02-0.37,0.04-0.55,0.05c0.61,0.02,0.57,0.01-0.12-0.04c0.09-0.05,0.84,0.25,0.85,0.26c0.83,0.28,1.63,0.64,2.45,0.94
					c5.89,2.12,12.45,2.89,18.67,2.22c3.31-0.35,6.58-0.94,9.74-2.01c3.1-1.05,6.02-2.48,8.89-4.02c1.27-0.68,2.55-1.37,3.86-1.97
					c0.27-0.12,1.1-0.61,0.13-0.07c0.3-0.17,0.68-0.26,1.01-0.38c0.68-0.24,1.37-0.44,2.07-0.6c0.43-0.09,1.4-0.03,0.03-0.05
					c0.23,0,0.49-0.05,0.72-0.07c0.61-0.04,1.21,0,1.81-0.01c1.23-0.01-1.18-0.27,0.02-0.02c0.23,0.05,0.46,0.09,0.69,0.15
					c0.08,0.02,1.01,0.24,1.01,0.31c-0.66-0.3-0.82-0.36-0.46-0.19c0.16,0.07,0.31,0.15,0.46,0.24c0.12,0.07,0.86,0.42,0.88,0.56
					c0.01,0.09-0.96-0.96-0.26-0.15c0.08,0.08,0.17,0.17,0.25,0.25c0.38,0.44,0.35,0.38-0.09-0.17c0.13,0.08,0.36,0.55,0.42,0.64
					c0.15,0.25,0.51,0.73,0.53,1.02c-0.01-0.09-0.4-1.15-0.1-0.18c0.24,0.75,0.47,1.49,0.65,2.26c0.29,1.2,0.52,2.42,0.72,3.64
					c0.05,0.29,0.09,0.59,0.14,0.88c0.13,0.78-0.15-1.37-0.02-0.16c0.07,0.72,0.15,1.43,0.19,2.15c0.06,1.19,0.02,2.35-0.04,3.54
					c-0.06,1.18,0.18-0.96,0.04-0.21c-0.05,0.28-0.09,0.56-0.15,0.83c-0.14,0.66-0.34,1.28-0.55,1.91c-0.3,0.9,0.08-0.35,0.15-0.36
					c-0.08,0.02-0.4,0.76-0.46,0.86c-0.11,0.19-0.24,0.36-0.35,0.54c-0.58,0.95,0.84-0.8,0.01-0.05c-0.16,0.15-0.31,0.32-0.47,0.47
					c-0.08,0.07-0.17,0.15-0.25,0.22c-0.42,0.35-0.34,0.29,0.22-0.17c-0.01-0.01-0.56,0.36-0.65,0.41
					c-0.22,0.13-0.44,0.24-0.67,0.35c0.69-0.28,0.76-0.31,0.21-0.11c-0.39,0.1-1.49,0.64-1.83,0.46c0.03,0.02,1.34-0.11,0.26-0.04
					c-0.39,0.03-0.78,0.06-1.17,0.07c-1.4,0.04-2.81-0.05-4.2-0.19c-2.89-0.29-5.75-0.7-8.65-0.8c-6.56-0.23-13.14,0.58-19.59,1.71
					c-6.98,1.22-13.86,2.94-20.79,4.41c-3.39,0.72-6.79,1.38-10.22,1.89c-0.45,0.07-0.89,0.13-1.34,0.19
					c0.95-0.12,0.06-0.01-0.38,0.04c-0.89,0.11-1.79,0.2-2.68,0.28c-1.79,0.16-3.58,0.27-5.38,0.31c-2.12,0.06-3.99,1.28-4.82,3.24
					c-0.77,1.82-0.5,4.4,1.09,5.76c6.11,5.22,12.71,9.83,19.79,13.63c0-3.04,0-6.08,0-9.11c-9.14,6.13-9.94,19.21-3.95,27.87
					c6.39,9.23,17.33,13.93,27.23,18.39c10.48,4.72,21.19,8.93,31.39,14.26c4.72,2.46,9.32,5.16,13.65,8.26
					c0.42,0.3,0.83,0.6,1.25,0.91c0.26,0.19,0.52,0.38,0.77,0.58c0.25,0.19,1.02,0.67,0,0c1,0.67,1.93,1.54,2.84,2.32
					c1.86,1.59,3.64,3.25,5.34,5.01c0.93,0.96,1.84,1.95,2.72,2.97c0.46,0.53,0.91,1.07,1.35,1.61c0.2,0.25,0.4,0.5,0.59,0.74
					c0.68,0.84-0.59-0.81,0.1,0.14c1.55,2.15,3.03,4.33,4.31,6.65c0.66,1.2,1.28,2.43,1.85,3.69c0.09,0.2,0.18,0.52,0.3,0.68
					c-0.26-0.63-0.32-0.76-0.17-0.4c0.07,0.17,0.14,0.35,0.21,0.52c0.23,0.58,0.45,1.17,0.66,1.75c0.92,2.61,1.59,5.3,2.02,8.04
					c0.43,2.74,3.99,4.5,6.49,3.69C749.98,446.68,751.16,444.08,750.69,441.15L750.69,441.15z"/>
			</g>
		</g>
		<g>
			<g>
				<path class="st0" d="M718.99,216.77c0.27-0.38,0.52-0.84,0.85-1.17c-0.09,0.09-0.76,0.92-0.15,0.22
					c0.16-0.18,0.31-0.37,0.46-0.55c0.62-0.72,1.28-1.41,1.97-2.07c0.69-0.66,1.4-1.28,2.14-1.88c0.32-0.26,0.65-0.26-0.22,0.17
					c0.15-0.07,0.3-0.22,0.43-0.32c0.43-0.31,0.87-0.62,1.32-0.91c1.6-1.05,3.28-1.98,5.02-2.78c0.22-0.1,0.44-0.2,0.66-0.3
					c0.39-0.18,0.5-0.45-0.26,0.11c0.35-0.26,0.95-0.38,1.35-0.53c0.91-0.34,1.84-0.65,2.77-0.93c1.88-0.57,3.8-1.02,5.73-1.37
					c0.49-0.09,0.97-0.17,1.46-0.24c0.24-0.04,0.5-0.06,0.73-0.11c-0.13,0.03-1.26,0.15-0.3,0.05c0.98-0.11,1.96-0.21,2.94-0.28
					c4.16-0.29,8.3-0.09,12.43,0.37c0.27,0.03,1.03,0.07-0.18-0.03c0.27,0.02,0.55,0.08,0.82,0.12c0.54,0.08,1.09,0.17,1.63,0.27
					c1.08,0.19,2.16,0.41,3.23,0.66c2.14,0.49,4.26,1.09,6.34,1.79c0.97,0.33,1.94,0.68,2.89,1.06c0.25,0.1,0.51,0.21,0.76,0.31
					c0.71,0.28-0.82-0.37-0.13-0.05c0.56,0.26,1.12,0.5,1.68,0.76c1.97,0.93,3.89,1.98,5.74,3.14c0.87,0.54,1.72,1.11,2.55,1.7
					c0.44,0.32,0.88,0.64,1.32,0.97c0.61,0.45-0.68-0.56-0.1-0.07c0.26,0.22,0.53,0.43,0.79,0.65c1.67,1.39,3.25,2.89,4.73,4.47
					c0.69,0.74,1.36,1.49,2,2.27c0.35,0.41,0.68,0.84,1.02,1.25c0.48,0.58-0.53-0.72-0.08-0.11c0.2,0.27,0.4,0.54,0.6,0.81
					c1.28,1.73,2.47,3.53,3.58,5.37c2.54,4.19,4.69,8.61,6.64,13.1c0.08,0.19,0.16,0.38,0.24,0.57c0.23,0.54,0.33,0.69,0.03,0.06
					c0.27,0.55,0.48,1.14,0.71,1.71c0.47,1.14,0.92,2.29,1.37,3.44c0.92,2.35,1.81,4.71,2.7,7.08c0.97,2.58,3.61,4.62,6.49,3.69
					c2.52-0.82,4.72-3.72,3.69-6.49c-3.34-8.91-6.74-17.89-11.42-26.2c-4.82-8.55-11.1-16.11-19.15-21.77
					c-7.78-5.47-17.07-8.97-26.43-10.48c-9.22-1.49-18.64-1.5-27.74,0.81c-9.91,2.52-18.87,7.92-24.77,16.38
					c-1.58,2.27-0.49,5.96,1.89,7.22C714.47,220.09,717.3,219.2,718.99,216.77L718.99,216.77z"/>
			</g>
		</g>
		<g>
			<g>
				<path class="st0" d="M798.04,222c2-0.18,4-0.23,6.01-0.14c0.97,0.05,1.92,0.16,2.88,0.24c0.63,0.05-0.35-0.06-0.38-0.06
					c0.24-0.01,0.57,0.08,0.82,0.12c0.54,0.09,1.09,0.18,1.63,0.29c1.97,0.38,3.91,0.89,5.82,1.52c0.92,0.3,1.84,0.63,2.75,0.98
					c0.19,0.08,0.39,0.15,0.58,0.23c0.92,0.36,0.06,0-0.1-0.05c0.52,0.16,1.03,0.45,1.53,0.68c3.67,1.71,7.16,3.82,10.41,6.24
					c0.17,0.13,0.33,0.25,0.5,0.38c0.62,0.46-0.67-0.55-0.08-0.05c0.37,0.31,0.76,0.61,1.13,0.92c0.81,0.68,1.61,1.37,2.39,2.09
					c1.51,1.38,2.96,2.83,4.35,4.34c1.34,1.45,2.63,2.95,3.87,4.5c0.15,0.19,1.29,1.54,0.48,0.6c0.28,0.32,0.52,0.68,0.77,1.02
					c0.68,0.91,1.34,1.83,1.98,2.76c2.31,3.33,4.42,6.79,6.39,10.33c2.06,3.7,3.96,7.48,5.76,11.32c0.94,2.01,1.85,4.03,2.72,6.06
					c0.12,0.28,0.24,0.56,0.36,0.84c-0.03-0.07-0.32-0.77-0.09-0.2c0.2,0.5,0.41,0.99,0.61,1.48c0.43,1.06,0.86,2.13,1.27,3.19
					c3.21,8.26,5.89,16.73,8.02,25.33c1.04,4.23,1.96,8.49,2.73,12.77c0.41,2.26,0.78,4.52,1.11,6.78c0.07,0.45,0.13,0.91,0.19,1.36
					c0.15,1.03,0.02,0.16,0-0.04c0.03,0.23,0.06,0.45,0.09,0.68c0.15,1.16,0.29,2.31,0.42,3.47c2.1,18.74,1.65,37.64,0.93,56.45
					c-0.72,18.76-1.72,37.56-0.75,56.33c0.12,2.35,0.28,4.7,0.46,7.05c0.22,2.75,2.27,5.41,5.28,5.28c2.67-0.12,5.51-2.33,5.28-5.28
					c-1.51-19.15-0.71-38.36,0.05-57.53c0.77-19.14,1.5-38.35-0.21-57.46c-1.65-18.4-5.55-36.57-11.89-53.94
					c-6.09-16.71-13.92-33.35-25.32-47.13c-11.11-13.44-26.99-23.59-44.76-24.46c-2-0.1-4.01-0.05-6.01,0.14
					c-2.74,0.25-5.41,2.25-5.28,5.28C792.88,219.37,795.1,222.27,798.04,222L798.04,222z"/>
			</g>
		</g>
		<g>
			<g>
				<path class="st0" d="M665.62,296.22c1.5-5.53,7.33-8.12,12.62-8.48c2.99-0.2,6.05-0.04,8.93,0.69c2.29,0.58,4.52,1.57,5.77,3.61
					c1.85,3.01,6.61,0.25,4.75-2.77c-3.97-6.44-12.99-7.55-19.88-6.98c-7.61,0.63-15.35,4.63-17.48,12.48
					C659.4,298.17,664.7,299.63,665.62,296.22L665.62,296.22z"/>
			</g>
		</g>
	</g>
</g>
</svg>
