<svg width="24" height="24" viewBox="0 0 24 24" fill="none" xmlns="http://www.w3.org/2000/svg">
<g clip-path="url(#clip0_4365_398)">
<path d="M2.20599 21.7978C2.20599 20.6592 2.20599 19.5207 2.20599 18.3821C2.20599 17.1961 2.20599 16.0338 2.20599 14.8952C2.20599 11.2423 2.72784 8.37211 3.77153 6.28472C4.81522 4.19733 6.64169 3.1062 9.25092 3.01132L10.603 5.7866C9.13232 5.92892 8.11235 6.64052 7.54306 7.92142C7.02121 9.15488 6.76029 11.1237 6.76029 13.8278H10.5318V21.7978H2.20599ZM14.7303 21.7978C14.7303 20.6592 14.7303 19.5207 14.7303 18.3821C14.7303 17.1961 14.7303 16.0338 14.7303 14.8952C14.7303 11.2423 15.2522 8.37211 16.2959 6.28472C17.3396 4.19733 19.166 3.1062 21.7753 3.01132L23.1273 5.7866C21.6566 5.92892 20.6367 6.64052 20.0674 7.92142C19.5455 9.15488 19.2846 11.1237 19.2846 13.8278H23.0561V21.7978H14.7303Z" fill="url(#paint0_linear_4365_398)"/>
</g>
<defs>
<linearGradient id="paint0_linear_4365_398" x1="19.4233" y1="12.9998" x2="-5.3294" y2="14.8904" gradientUnits="userSpaceOnUse">
<stop offset="1" stop-color="#1AAF20"/>
</linearGradient>
<clipPath id="clip0_4365_398">
<rect width="24" height="24" fill="white"/>
</clipPath>
</defs>
</svg>
