<svg width="24" height="24" viewBox="0 0 24 24" fill="none" xmlns="http://www.w3.org/2000/svg">
<g clip-path="url(#clip0_4365_400)">
<path d="M21.7276 2.86821C21.7276 4.00678 21.7276 5.14536 21.7276 6.28393C21.7276 7.46995 21.7276 8.63224 21.7276 9.77082C21.7276 13.4237 21.2058 16.2939 20.1621 18.3813C19.1184 20.4687 17.2919 21.5598 14.6827 21.6547L13.3306 18.8794C14.8013 18.7371 15.8212 18.0255 16.3905 16.7446C16.9124 15.5111 17.1733 13.5424 17.1733 10.8382H13.4018V2.86821H21.7276ZM9.20328 2.86821C9.20328 4.00678 9.20328 5.14536 9.20328 6.28393C9.20328 7.46995 9.20328 8.63224 9.20328 9.77082C9.20328 13.4237 8.68143 16.2939 7.63774 18.3813C6.59404 20.4687 4.76758 21.5598 2.15834 21.6547L0.806284 18.8794C2.27694 18.7371 3.29692 18.0255 3.86621 16.7446C4.38805 15.5111 4.64897 13.5424 4.64897 10.8382H0.877446V2.86821H9.20328Z" fill="url(#paint0_linear_4365_400)"/>
</g>
<defs>
<linearGradient id="paint0_linear_4365_400" x1="4.51034" y1="11.6662" x2="29.263" y2="9.77561" gradientUnits="userSpaceOnUse">
<stop offset="1" stop-color="#1AAF20"/>
</linearGradient>
<clipPath id="clip0_4365_400">
<rect width="24" height="24" fill="white"/>
</clipPath>
</defs>
</svg>
