<?xml version="1.0" standalone="no"?>
<!DOCTYPE svg PUBLIC "-//W3C//DTD SVG 20010904//EN"
 "http://www.w3.org/TR/2001/REC-SVG-20010904/DTD/svg10.dtd">
<svg version="1.0" xmlns="http://www.w3.org/2000/svg"
 width="816.000000pt" height="816.000000pt" viewBox="0 0 816.000000 816.000000"
 preserveAspectRatio="xMidYMid meet">
<metadata>
Created by potrace 1.14, written by Peter Selinger 2001-2017
</metadata>
<g transform="translate(0.000000,816.000000) scale(0.100000,-0.100000)"
fill="#000000" stroke="none">
<path d="M5328 6775 c-2 -1 -30 -5 -63 -8 -91 -9 -235 -43 -306 -74 -134 -56
-287 -174 -351 -269 -26 -39 -19 -39 -152 -10 -159 35 -431 40 -602 10 -168
-29 -387 -112 -513 -194 -30 -19 -68 -43 -85 -54 -17 -10 -33 -21 -36 -25 -3
-4 -32 -32 -65 -61 -71 -64 -175 -180 -175 -197 0 -6 -4 -13 -8 -15 -14 -5
-81 -116 -116 -191 -33 -71 -70 -180 -79 -227 -3 -14 -8 -36 -11 -50 -15 -61
-23 -264 -13 -310 2 -8 7 -33 12 -55 12 -64 61 -159 105 -204 23 -23 72 -62
110 -87 74 -47 87 -65 114 -154 27 -85 59 -163 76 -184 27 -34 65 -66 77 -67
7 -1 19 -2 26 -3 31 -5 82 29 164 112 l90 90 59 -20 c100 -34 190 -46 308 -43
61 2 120 6 131 8 116 26 142 36 293 110 144 70 202 81 242 44 14 -12 27 -29
29 -37 2 -8 8 -33 13 -55 17 -66 18 -186 3 -221 -24 -58 -52 -68 -163 -59
-191 15 -407 11 -527 -10 -16 -3 -43 -7 -60 -10 -16 -3 -41 -7 -55 -10 -14 -3
-38 -8 -54 -11 -16 -2 -32 -6 -35 -8 -3 -2 -22 -7 -41 -10 -71 -12 -96 -17
-125 -26 -16 -5 -47 -11 -69 -15 -21 -3 -41 -7 -45 -9 -3 -2 -22 -7 -41 -10
-55 -9 -93 -16 -125 -22 -16 -4 -47 -8 -70 -10 -22 -2 -74 -6 -115 -9 -82 -7
-113 -21 -133 -63 -24 -49 -11 -98 35 -133 17 -13 42 -34 57 -47 19 -16 189
-136 208 -146 1 -1 -8 -28 -19 -61 -37 -105 -25 -234 31 -343 28 -54 124 -156
195 -206 68 -49 202 -126 218 -126 5 0 22 -9 36 -19 15 -10 30 -19 35 -20 4 0
22 -7 40 -15 104 -45 198 -86 237 -104 25 -11 106 -47 181 -80 221 -98 480
-240 556 -307 7 -5 26 -21 43 -35 79 -62 204 -195 256 -270 33 -48 104 -178
104 -191 0 -4 5 -20 12 -36 6 -15 12 -30 13 -33 6 -24 19 -87 20 -95 4 -59 65
-106 125 -97 33 5 79 46 81 71 5 54 3 72 -13 131 -10 36 -20 74 -22 85 -8 42
-105 233 -134 263 -6 8 -17 23 -23 34 -30 56 -167 202 -265 281 -32 26 -66 54
-75 61 -37 30 -169 115 -254 163 -97 56 -223 116 -405 195 -63 28 -137 60
-165 73 -27 12 -75 33 -105 46 -101 42 -306 148 -361 186 -117 80 -170 161
-171 259 -1 43 5 62 27 94 15 22 31 40 34 40 16 0 39 58 36 93 -2 43 -21 67
-73 93 -53 27 -113 66 -109 71 3 2 69 17 148 33 151 32 172 36 204 44 48 11
173 37 204 42 18 3 43 7 55 10 99 19 291 23 431 9 121 -12 156 -12 206 1 174
45 252 164 245 372 -10 260 -81 386 -239 428 -55 14 -174 12 -205 -5 -16 -8
-27 -2 -70 39 -39 38 -66 54 -119 70 -82 26 -214 32 -299 14 -119 -24 -230
-103 -269 -191 l-19 -42 -56 6 c-77 8 -115 -7 -185 -72 l-59 -55 -23 67 c-13
38 -26 76 -29 86 -4 9 -10 17 -14 17 -4 0 -10 9 -13 19 -4 18 -50 55 -171 139
-52 36 -82 89 -92 163 -25 179 26 397 133 567 18 29 33 55 33 58 0 3 6 11 13
19 6 7 22 27 35 43 47 62 184 192 201 192 6 0 11 5 11 10 0 6 5 10 10 10 6 0
19 8 30 18 43 40 275 140 361 156 13 3 24 5 24 6 0 3 74 16 145 26 84 13 349
5 410 -11 8 -2 31 -6 50 -9 42 -7 180 -44 225 -60 208 -77 364 -166 510 -290
71 -60 157 -147 194 -196 14 -19 28 -37 32 -40 11 -10 67 -97 96 -150 47 -87
56 -99 84 -110 30 -13 64 -10 96 8 48 27 61 95 30 157 -28 56 -122 206 -144
230 -10 11 -31 37 -47 58 -28 38 -173 182 -231 230 -78 63 -235 162 -349 218
l-126 61 43 42 c207 206 600 260 972 133 99 -34 256 -118 301 -161 6 -6 29
-27 50 -47 146 -136 249 -307 375 -624 35 -88 72 -170 83 -182 55 -64 176 -15
176 71 0 58 -178 474 -255 596 -15 23 -24 44 -22 47 9 9 131 -19 210 -47 264
-97 509 -326 687 -645 64 -114 133 -252 175 -350 26 -60 53 -123 60 -140 15
-33 113 -323 120 -352 2 -10 21 -81 41 -158 20 -77 37 -149 39 -160 1 -11 7
-47 14 -80 6 -33 13 -78 16 -100 4 -22 8 -51 11 -65 2 -14 7 -47 9 -75 3 -27
8 -66 11 -85 18 -128 25 -792 11 -1095 -30 -650 -26 -1219 9 -1286 7 -15 24
-35 36 -43 25 -18 98 -22 98 -5 0 5 4 8 9 4 14 -8 50 48 52 81 1 16 -2 79 -6
139 -7 124 -8 590 0 765 16 371 19 501 19 840 1 376 -7 581 -29 705 -3 17 -7
53 -10 80 -3 28 -8 61 -11 75 -3 13 -8 40 -10 60 -2 19 -7 44 -9 55 -3 11 -11
52 -19 91 -45 223 -126 486 -222 727 -76 190 -196 434 -255 519 -11 14 -19 31
-19 36 0 6 -3 12 -7 14 -5 2 -26 30 -48 63 -149 223 -349 410 -553 518 -87 46
-236 100 -302 111 -19 3 -48 9 -65 12 -16 3 -77 7 -135 8 l-106 1 -59 50 c-33
28 -61 53 -63 58 -2 4 -10 7 -17 7 -7 0 -15 4 -17 9 -6 15 -131 87 -218 123
-79 34 -166 63 -219 73 -13 2 -30 6 -39 9 -16 5 -51 10 -142 22 -41 5 -228 12
-232 9z m-1203 -1899 c41 -8 125 -51 125 -65 0 -22 -238 -119 -260 -106 -5 3
-11 1 -14 -4 -12 -19 -242 -8 -263 12 -5 5 17 47 42 78 62 78 213 113 370 85z"/>
<path d="M1177 5404 c-1 -1 -36 -5 -76 -8 -63 -6 -147 -20 -186 -30 -5 -2 -23
-6 -40 -10 -68 -18 -216 -77 -290 -117 -189 -101 -355 -247 -465 -408 -47 -70
-107 -187 -113 -222 -7 -36 17 -81 56 -103 17 -10 46 -26 62 -36 171 -100 317
-177 420 -222 39 -17 88 -38 110 -48 42 -18 219 -80 245 -85 8 -2 35 -8 60
-15 72 -19 96 -24 173 -35 27 -4 59 -9 70 -11 33 -7 286 -7 337 0 25 4 61 9
80 12 150 20 336 87 474 170 145 88 289 231 280 282 -1 6 -2 19 -3 26 -2 29
-45 62 -83 65 -35 2 -44 -4 -121 -76 -108 -101 -114 -106 -208 -158 -115 -63
-253 -109 -399 -131 -93 -14 -366 -7 -430 11 -8 2 -31 7 -50 11 -45 8 -65 12
-65 14 0 1 -11 4 -25 6 -45 8 -254 81 -320 112 -129 59 -217 103 -305 152 -49
28 -100 56 -112 62 -13 6 -23 18 -23 27 0 54 186 266 310 353 292 205 647 272
993 188 152 -36 338 -114 440 -184 21 -14 40 -26 43 -26 22 0 210 -156 316
-263 103 -104 129 -117 178 -92 38 19 54 56 45 102 -6 31 -27 58 -118 148
-178 175 -291 259 -491 362 -219 112 -456 172 -701 177 -37 1 -67 1 -68 0z"/>
<path d="M2748 4405 c-2 -2 -25 -6 -53 -10 -133 -17 -344 -146 -504 -306 -56
-56 -121 -127 -141 -155 -175 -244 -297 -488 -391 -780 l-23 -70 -88 -1 c-209
-2 -366 -46 -481 -135 -141 -107 -252 -290 -273 -449 -35 -270 -20 -441 50
-585 60 -120 191 -231 391 -332 80 -40 225 -101 256 -107 9 -2 37 -10 62 -19
47 -16 52 -17 147 -35 30 -6 66 -14 80 -17 14 -3 93 -7 175 -9 162 -4 227 7
329 55 65 31 150 112 190 181 50 84 105 231 123 328 2 14 6 28 9 32 11 18 19
112 18 214 -1 114 -21 196 -70 285 -91 165 -248 311 -443 411 -85 44 -231 109
-245 109 -7 0 -20 6 -29 13 -16 11 -16 16 -1 67 44 148 205 520 226 520 4 0 8
6 8 13 0 14 101 166 145 217 131 153 294 284 430 346 48 21 74 27 127 26 57
-1 72 3 95 22 37 32 40 93 6 130 -13 14 -30 26 -38 26 -20 0 -20 0 -54 10 -16
4 -31 7 -33 5z"/>
</g>
</svg>
