<svg width="16" height="21" viewBox="0 0 16 21" fill="none" xmlns="http://www.w3.org/2000/svg">
<path d="M15.1523 19.1205V1.12052C15.1518 0.938278 15.1014 0.759644 15.0067 0.603844C14.912 0.448043 14.7765 0.320978 14.6148 0.236324C14.4532 0.15167 14.2714 0.112634 14.0892 0.123417C13.9069 0.1342 13.7311 0.194394 13.5805 0.29752L0.557316 9.29752C0.017353 9.67052 0.017353 10.5685 0.557316 10.9425L13.5805 19.9425C13.7308 20.0467 13.9067 20.1078 14.0892 20.1192C14.2718 20.1305 14.454 20.0917 14.616 20.007C14.778 19.9223 14.9137 19.7948 15.0082 19.6386C15.1028 19.4823 15.1526 19.3031 15.1523 19.1205Z" fill="#25D72C" fill-opacity="0.9"/>
</svg>
