<svg width="160" height="192" viewBox="0 0 160 192" fill="none" xmlns="http://www.w3.org/2000/svg">
<path d="M158.788 156.459C159.448 156.016 159.736 154.989 159.148 154.357C154.437 149.293 149.729 144.227 145.016 139.167C144.067 138.149 142.327 139.385 142.999 140.74C145.236 145.25 148.076 148.966 151.632 152.081C132.46 151.546 119.029 134.634 110.184 117.758C101.597 101.373 94.6811 84.4722 82.8163 70.4854C62.3164 46.3201 32.0941 30.4566 0.745511 33.5882C-0.0127951 33.6635 -0.126425 34.939 0.664929 34.8979C36.4506 32.997 69.3131 52.5231 89.5492 83.2085C106.67 109.169 117.335 157.597 155.176 154.62C155.36 154.605 155.524 154.544 155.677 154.466C155.855 154.656 156.031 154.847 156.208 155.037C153.04 156.936 149.916 158.021 146.158 158.412C144.547 158.58 144.373 161.33 145.988 161.15C150.791 160.616 154.623 159.263 158.788 156.459Z" fill="white"/>
</svg>
