<svg width="122" height="154" viewBox="0 0 122 154" fill="none" xmlns="http://www.w3.org/2000/svg">
<path d="M119.868 1.34141C101.702 71.2037 60.0538 116.725 18.9291 130.688C20.5329 129.509 22.1043 128.254 23.6068 126.861C25.7937 124.834 27.063 124.409 27.6786 119.673C27.8984 117.978 27.388 116.55 26.5335 115.959L25.8854 115.512C24.1783 114.33 22.9339 119.656 24.6314 120.982C20.7222 117.929 7.32743 130.632 2.18516 134.632C2.13737 134.639 2.08763 134.649 2.03984 134.653C1.64222 134.702 1.28096 135.061 0.990396 135.567C-0.414647 136.866 -0.30761 140.331 1.20257 141.428C6.77113 145.463 12.3378 149.502 17.9063 153.54C19.6899 154.835 21.0032 149.185 19.2234 147.796C15.7328 145.069 12.2422 142.357 8.74966 139.638C53.8047 129.763 102.282 81.0995 121.145 2.71334C121.524 1.14083 120.285 -0.252209 119.868 1.34141Z" fill="white"/>
</svg>
