<svg width="201" height="130" viewBox="0 0 201 130" fill="none" xmlns="http://www.w3.org/2000/svg">
<path d="M192.037 102.419C192.553 106.812 193.105 111.201 193.642 115.591C175.546 83.7142 153.314 54.6785 115.404 64.8742C93.4014 70.7911 68.4638 88.5264 45.8236 76.6603C32.6804 69.7708 26.6073 53.5931 20.4395 40.0419C14.421 26.8267 8.24199 13.7051 2.26835 0.465045C1.85287 -0.456205 0.366576 0.335463 0.767253 1.27579C16.3954 37.882 27.6256 92.3456 73.6019 84.0887C95.8162 80.0984 117.035 63.6203 140.101 68.3785C163.178 73.1366 178.007 96.9307 189.278 118.309C184.242 117.624 179.329 116.611 174.335 115.187C170.971 114.228 169.995 119.92 173.215 121.014C181.166 123.709 189.124 126.379 197.083 129.051C198.654 129.58 200.567 127.73 200.346 125.925C199.369 117.969 198.401 110.009 197.378 102.057C196.896 98.3175 191.59 98.6204 192.037 102.419Z" fill="white"/>
</svg>
