<svg width="29" height="184" viewBox="0 0 29 184" fill="none" xmlns="http://www.w3.org/2000/svg">
<path d="M11.7231 183.623C11.0175 183.82 10.1529 183.412 10.0942 182.627C9.62629 176.334 9.15527 170.042 8.69121 163.75C8.59826 162.483 10.5027 162.002 10.9917 163.276C12.6216 167.513 13.3482 171.701 13.2278 176.03C24.7456 162.333 21.7567 142.923 15.9508 126.736C10.3144 111.02 3.29748 96.1636 1.2944 79.5828C-2.16581 50.9356 5.94689 20.4297 27.4582 0.410193C27.9782 -0.0743685 28.9014 0.603263 28.3838 1.13116C4.94709 24.9776 -2.35201 59.4996 5.63123 91.8321C12.3851 119.186 38.1599 155.368 12.7308 180.011C12.6067 180.131 12.4641 180.208 12.3171 180.269C12.3339 180.506 12.3526 180.743 12.3704 180.979C15.6022 179.894 18.2625 178.358 20.8516 175.967C21.9619 174.943 23.9085 176.453 22.7877 177.474C19.4557 180.509 16.1775 182.381 11.7231 183.623Z" fill="white"/>
</svg>
