<svg width="103" height="54" viewBox="0 0 103 54" fill="none" xmlns="http://www.w3.org/2000/svg">
<path d="M0.338879 1.42647C2.29866 0.467202 4.01663 0.530045 6.10893 0.689035C6.41275 0.708325 6.71658 0.727616 7.0296 0.74749C7.66912 0.788785 8.30865 0.832921 8.94818 0.879547C9.67376 0.931059 10.3994 0.977312 11.1249 1.01955C14.1169 1.1985 17.0904 1.54328 20.078 1.95315C23.7291 2.45266 23.7291 2.45266 27.3838 2.79074C28.7827 2.88879 30.1391 3.07829 31.5289 3.40369C33.4 3.82893 35.2677 4.18446 37.1474 4.4935C38.4603 4.78681 39.351 5.07884 40.357 6.29099C41.0743 7.87008 40.986 8.6189 40.7971 10.3815C40.3635 11.7014 39.819 12.911 39.254 14.1349C39.1078 14.4623 38.9615 14.7897 38.8108 15.127C38.4519 15.9288 38.0875 16.7261 37.7221 17.5226C38.7155 18.567 39.5873 19.1963 40.7797 19.7312C41.1026 19.8778 41.4255 20.0243 41.7582 20.1753C42.1053 20.329 42.4524 20.4827 42.8101 20.6411C43.171 20.8034 43.5319 20.9658 43.9038 21.1331C44.6681 21.4763 45.4327 21.8178 46.1977 22.1577C47.3573 22.6733 48.5156 23.1941 49.6738 23.7158C50.4189 24.0496 51.164 24.3831 51.9093 24.7162C52.2512 24.8698 52.5931 25.0234 52.9453 25.1816C54.9602 26.0747 56.9786 26.8672 59.0288 27.579C60.4434 28.0764 61.844 28.6417 63.2465 29.2042C65.6805 30.1709 68.115 31.1052 70.5716 31.9474C70.8186 32.0333 71.0657 32.1193 71.3202 32.2078C72.1703 32.5031 73.0209 32.795 73.8716 33.0862C74.1403 33.1795 74.409 33.2729 74.6858 33.369C75.9483 33.7966 77.1484 34.1317 78.4377 34.3536C79.856 34.6301 81.0506 35.1717 82.4144 35.7986C83.8279 36.2958 85.2485 36.7395 86.6704 37.1827C87.0456 37.3017 87.4207 37.4208 87.8073 37.5434C89.264 38.0018 90.6816 38.4343 92.1597 38.7052C91.67 37.506 91.1804 36.3068 90.6758 35.0713C91.0008 34.4836 91.3257 33.896 91.6604 33.2905C100.593 37.8538 100.593 37.8538 102.832 43.8829C101.478 46.0734 99.9471 47.8176 98.2375 49.5285C98.0312 49.7365 97.8249 49.9446 97.6124 50.1589C96.3956 51.3564 95.1753 52.3278 93.779 53.1503C93.4224 52.6227 93.0657 52.0951 92.6982 51.5514C94.1677 48.4658 95.7674 46.8635 98.2095 45.137C98.0871 44.8372 97.9647 44.5374 97.8385 44.2285C97.4623 44.2311 97.4623 44.2311 97.0785 44.2337C96.1723 44.1949 95.3557 44.0493 94.4602 43.819C94.1484 43.7393 93.8365 43.6596 93.5152 43.5775C93.186 43.4907 92.8567 43.404 92.5175 43.3147C92.1761 43.2258 91.8346 43.137 91.4829 43.0454C88.663 42.3023 85.8649 41.4486 83.0671 40.541C82.2005 40.2737 81.3337 40.0069 80.4669 39.7406C75.9188 38.3154 71.3916 36.7522 66.8948 35.0192C65.8623 34.6293 64.8288 34.2575 63.7922 33.8915C61.8168 33.1849 59.8553 32.4254 57.8966 31.6296C57.5483 31.4881 57.1999 31.3465 56.841 31.2007C52.8143 29.5516 48.8106 27.8018 44.8135 26.0158C43.9633 25.6372 43.1124 25.2616 42.2609 24.8889C41.0109 24.3416 39.7631 23.7856 38.5155 23.2275C38.1349 23.0626 37.7542 22.8976 37.3621 22.7277C37.0107 22.5684 36.6593 22.409 36.2973 22.2449C35.9895 22.1084 35.6817 21.9719 35.3646 21.8314C34.3823 21.1707 33.9189 20.4008 33.2846 19.2309C33.9873 16.8927 34.8856 14.8776 35.9268 12.7985C36.078 12.4927 36.2292 12.1869 36.385 11.8718C36.7543 11.1255 37.1257 10.3809 37.4975 9.63677C37.2527 9.03717 37.0078 8.43757 36.7556 7.81981C36.364 7.88213 36.364 7.88213 35.9645 7.9457C34.2324 8.02175 32.5557 7.72529 30.8243 7.44205C30.0494 7.32035 29.2744 7.19915 28.4994 7.07839C28.0959 7.01514 27.6923 6.95188 27.2766 6.88671C25.1747 6.56292 23.072 6.26391 20.9688 5.96869C20.5818 5.91323 20.1948 5.85776 19.7961 5.80061C17.3688 5.4609 14.9512 5.21861 12.5206 5.05964C11.1916 4.97257 9.86262 4.88369 8.53363 4.79305C8.20422 4.77322 7.8748 4.75339 7.5354 4.73296C5.2275 4.56937 3.01688 4.12162 0.741939 3.46149C0.60893 2.78993 0.47592 2.11838 0.338879 1.42647Z" fill="white"/>
</svg>
