<svg width="124" height="52" viewBox="0 0 124 52" fill="none" xmlns="http://www.w3.org/2000/svg">
<path d="M121.444 15.2749C121.968 15.7853 122.492 16.2956 123.032 16.8214C122.317 18.2116 122.317 18.2116 121.115 19.7227C119.815 20.0977 118.513 20.4101 117.212 20.6908C116.46 20.8901 115.707 21.094 114.955 21.3019C96.521 26.234 81.0546 23.4159 67.0743 11.2669C64.7533 9.40184 62.1613 8.30259 59.5025 7.17197C59.0786 6.98818 58.6546 6.80439 58.2178 6.61503C49.4789 3.05907 40.3905 4.73978 31.0943 10.2982C25.4712 13.9832 21.4926 19.2333 17.2508 25.2097C14.7999 28.6309 14.7999 28.6309 13.9387 28.8445C13.1984 28.2184 12.4829 27.5506 11.7814 26.863C11.397 26.4912 11.0127 26.1194 10.6167 25.7363C9.69922 24.7318 9.01937 23.7609 8.36627 22.4647C8.28916 23.1198 8.28916 23.1198 8.21048 23.7882C7.63172 28.2929 6.71493 32.5907 5.60671 37.0513C4.91044 40.0007 4.43731 42.8957 3.9959 45.8649C6.13606 46.4913 7.78441 45.8263 10.0526 44.9083C13.2577 43.6566 16.3753 42.6744 19.6063 41.9926C19.3302 41.4238 19.0542 40.855 18.7697 40.269C18.4175 39.5146 18.0658 38.7598 17.7145 38.0047C17.4397 37.4439 17.4397 37.4439 17.1593 36.8718C16.6503 35.7615 16.6503 35.7615 15.9648 33.6783C16.4238 32.0541 16.4238 32.0541 17.1016 30.9707C17.3636 31.2259 17.6257 31.481 17.8957 31.744C18.2364 31.3136 18.5772 30.8832 18.9283 30.4398C23.4907 24.8632 28.3067 20.4476 34.1506 18.009C34.9024 17.6734 34.9024 17.6734 35.6693 17.331C49.2598 11.5782 60.1761 15.8684 70.8663 23.0559C71.8234 23.7074 72.7738 24.3708 73.7232 25.0368C86.2299 33.6954 100.385 33.4896 115.76 28.8132C116.518 28.4599 117.273 28.0854 118.02 27.6764C119.649 26.8782 119.649 26.8782 120.878 27.2404C121.123 27.4398 121.368 27.6391 121.62 27.8445C121.202 29.4038 121.202 29.4038 120.1 31.1324C118.766 31.6748 117.503 31.9207 116.156 32.1791C114.7 32.475 113.33 32.918 111.884 33.4434C107.301 35.0054 102.392 36.1394 97.8486 36.1671C97.5865 35.912 97.3245 35.6568 97.0545 35.3939C96.8014 35.7768 96.5483 36.1598 96.2875 36.5544C93.6988 36.583 91.1755 36.1294 88.6641 35.7469C88.285 35.6968 87.9059 35.6467 87.5154 35.5951C81.2867 34.6338 76.0977 31.6859 70.9564 27.9809C60.2403 20.5418 49.6837 15.315 35.9056 20.9696C29.9216 23.8186 24.9184 28.3623 19.881 33.6771C20.1093 34.1527 20.3376 34.6283 20.5728 35.1182C20.8688 35.7433 21.1649 36.3684 21.4699 37.0124C21.7648 37.6316 22.0598 38.2507 22.3636 38.8886C23.1118 40.6378 23.1118 40.6378 23.5361 42.9582C22.0301 44.6687 21.0919 45.1649 19.2397 45.5098C16.2287 46.1706 13.3172 47.269 10.3328 48.4109C7.46894 49.4799 4.59925 50.3904 1.72233 51.2803C1.09789 50.3891 1.09789 50.3891 0.517557 49.1535C0.803153 46.923 1.17301 44.7993 1.59995 42.5782C1.88774 40.8499 2.17331 39.1215 2.45713 37.393C3.15309 33.301 3.94168 29.2432 4.83075 25.1685C5.20018 23.4445 5.52422 21.7288 5.83502 19.9998C6.34018 17.6308 6.34018 17.6308 7.49056 15.89C10.3154 18.2067 12.0183 21.4746 13.8843 24.9769C14.1539 24.5461 14.4234 24.1152 14.7012 23.6713C22.0309 12.2347 30.9643 4.76026 41.7954 1.51501C50.9382 -0.490379 59.4043 1.39593 66.6989 6.43854C67.5017 6.98336 68.3046 7.52799 69.1076 8.07246C70.3528 8.92157 71.5969 9.77259 72.8392 10.6272C87.6096 20.7664 101.237 21.9505 119.499 16.2424C120.141 15.9231 120.783 15.6038 121.444 15.2749Z" fill="white"/>
</svg>
