<svg width="70" height="118" viewBox="0 0 70 118" fill="none" xmlns="http://www.w3.org/2000/svg">
<path d="M5.04441 117.698C7.77729 117.528 7.77729 117.528 10.1269 116.684C14.6698 115.108 19.6639 114.779 24.5357 114.214C25.6615 114.069 25.6615 114.069 26.81 113.92C27.8333 113.798 27.8333 113.798 28.8772 113.674C30.5189 113.204 30.5189 113.204 31.4324 112.064C31.7787 110.829 31.7787 110.829 30.9499 109.345C29.4249 107.791 28.0141 106.86 26.0105 105.779C25.4047 105.447 24.7989 105.116 24.1748 104.774C22.3845 103.843 20.5769 102.948 18.7505 102.071C19.7444 99.3828 21.1975 96.9803 22.7225 94.5031C23.2119 93.702 23.7011 92.9007 24.1902 92.0993C24.4389 91.6923 24.6876 91.2852 24.9438 90.8658C27.3618 86.8923 29.6885 82.8852 31.9429 78.8394C34.205 74.7801 34.205 74.7801 36.522 70.7446C40.0728 64.6382 43.2235 58.3897 46.3522 52.1104C47.1434 50.5225 47.938 48.936 48.734 47.35C49.894 45.0376 51.0486 42.7232 52.2004 40.4077C52.7973 39.2108 53.3986 38.0156 54.0009 36.8208C56.16 32.5144 58.1309 28.1703 59.9853 23.7558C60.9794 21.3938 62.0203 19.0618 63.1535 16.7481C64.6036 13.7756 65.807 10.7433 66.9897 7.68057C67.5515 6.25784 68.1527 4.86795 68.808 3.47774C69.5395 1.77257 69.5395 1.77257 69.44 0.000355401C68.7508 0.00602442 68.0616 0.0116934 67.3515 0.0175343C65.8828 3.06682 64.4282 6.12087 63.0096 9.18853C62.6883 9.88269 62.6883 9.88269 62.3605 10.5909C61.9373 11.5064 61.5153 12.4224 61.0945 13.3388C60.1276 15.4296 59.1318 17.4977 58.0319 19.5375C56.7963 21.8332 55.6923 24.1692 54.5952 26.518C52.0142 32.0404 49.2443 37.4273 46.1661 42.7492C44.8373 45.0486 43.5936 47.378 42.3673 49.7202C38.1145 57.8069 33.6347 65.7987 28.8943 73.6762C27.392 76.1736 25.9145 78.6802 24.4629 81.2003C24.1257 81.7844 23.7886 82.3685 23.4411 82.9704C22.788 84.1037 22.1375 85.2382 21.4899 86.374C19.7314 89.4198 17.8158 92.2124 15.5681 95.0052C14.9076 96.1797 14.2658 97.363 13.6785 98.5669C11.5013 97.7245 9.49306 96.7499 7.4648 95.6629C6.61669 95.2128 6.61669 95.2128 5.75145 94.7536C4.28441 93.996 4.28441 93.996 3.60069 92.7396C2.69268 92.9421 1.78467 93.1446 0.849147 93.3533C-0.00351689 95.7274 0.507016 98.0695 0.859386 100.519C1.45241 104.915 1.79886 109.28 1.964 113.689C2.01062 114.787 2.08944 115.885 2.17479 116.983C2.9041 117.568 2.9041 117.568 5.04441 117.698Z" fill="white"/>
</svg>
