<svg width="67" height="156" viewBox="0 0 67 156" fill="none" xmlns="http://www.w3.org/2000/svg">
<path d="M61.7014 155.478C59.0952 155.256 59.0952 155.256 56.8587 154.144C52.5343 152.065 47.7717 151.637 43.1273 150.896C42.0542 150.704 42.0542 150.704 40.9594 150.509C39.9839 150.349 39.9839 150.349 38.9887 150.187C37.4253 149.566 37.4253 149.566 36.5608 148.062C36.238 146.43 36.238 146.43 37.0377 144.467C38.5022 142.412 39.8539 141.18 41.772 139.749C42.3519 139.31 42.9319 138.871 43.5295 138.419C45.2432 137.186 46.9732 136.002 48.721 134.841C47.7893 131.289 46.4176 128.115 44.9779 124.843C44.5159 123.785 44.0541 122.726 43.5924 121.668C43.3576 121.13 43.1229 120.593 42.881 120.039C40.5984 114.79 38.4032 109.497 36.2772 104.152C34.144 98.7899 34.144 98.7899 31.9582 93.4592C28.608 85.393 25.6404 77.1384 22.694 68.8431C21.9488 66.7455 21.2004 64.6496 20.4507 62.5544C19.3582 59.4997 18.2709 56.4422 17.1862 53.3833C16.6241 51.8021 16.0577 50.2233 15.4904 48.6449C13.457 42.9559 11.6032 37.217 9.86112 31.3848C8.92715 28.2643 7.94844 25.1834 6.88143 22.127C5.51619 18.2001 4.38669 14.194 3.27708 10.1475C2.74985 8.26789 2.1848 6.43169 1.56807 4.59512C0.880713 2.34236 0.880713 2.34236 0.986419 7.8987e-05C1.64392 0.00680196 2.30141 0.0135249 2.97882 0.0204515C4.36141 4.04876 5.7304 8.08338 7.06499 12.136C7.36727 13.0531 7.36727 13.0531 7.67567 13.9887C8.0738 15.1982 8.47086 16.4082 8.86668 17.6188C9.77636 20.3811 10.7137 23.1131 11.7506 25.8078C12.9153 28.8403 13.9542 31.9263 14.9865 35.0293C17.4151 42.3248 20.0247 49.4412 22.9288 56.4711C24.1824 59.5086 25.3548 62.5857 26.5103 65.6798C30.5181 76.3625 34.7431 86.9195 39.2173 97.3251C40.6353 100.624 42.0295 103.935 43.3989 107.264C43.717 108.036 44.0352 108.807 44.3629 109.602C44.9791 111.099 45.5928 112.598 46.2036 114.098C47.8626 118.122 49.6731 121.81 51.8003 125.499C52.4233 127.05 53.0284 128.613 53.5813 130.204C55.6636 129.088 57.5855 127.798 59.5272 126.359C60.3391 125.763 60.3391 125.763 61.1674 125.155C62.5716 124.152 62.5716 124.152 63.2316 122.491C64.0966 122.758 64.9617 123.024 65.8529 123.299C66.6518 126.436 66.1504 129.532 65.7992 132.77C65.2066 138.58 64.8493 144.35 64.6648 150.176C64.6136 151.628 64.5316 153.079 64.4435 154.529C63.7441 155.303 63.7441 155.303 61.7014 155.478Z" fill="white"/>
</svg>
