<svg width="149" height="79" viewBox="0 0 149 79" fill="none" xmlns="http://www.w3.org/2000/svg">
<path d="M4.40729 37.655C4.78861 38.2576 5.16993 38.8603 5.56281 39.4812C5.87787 38.9593 6.19294 38.4375 6.51755 37.8998C20.1474 16.0364 40.0273 5.87058 61.4343 2.26698C62.4014 2.11417 63.3684 1.96135 64.3648 1.80391C65.2503 1.63443 66.1358 1.46495 67.0482 1.29034C80.6206 -0.720503 96.8477 1.20924 107.948 12.0048C113.684 18.6784 117.92 24.909 119.884 34.55C121.181 40.3299 122.395 42.8764 126.661 45.837C127.401 46.2746 128.141 46.7121 128.903 47.1629C133.208 49.8904 136.116 54.1979 139.321 58.6287C140.107 59.7126 140.893 60.7966 141.703 61.9135C142.298 62.739 142.893 63.5645 143.506 64.4151C143.424 63.5305 143.341 62.646 143.256 61.7347C143.163 60.5845 143.069 59.4343 142.973 58.2493C142.874 57.1048 142.776 55.9603 142.674 54.781C142.688 53.8004 142.702 52.8197 142.716 51.8093C143.444 51.0853 144.171 50.3613 144.921 49.6153C147.784 53.3615 148.2 55.9763 148.31 61.1231C148.342 62.3765 148.374 63.6299 148.407 64.9212C148.444 68.5901 148.475 72.2523 148.392 75.9218C146.633 77.5202 146.633 77.5202 144.139 78.6653C141.306 77.2642 141.306 77.2642 138.251 75.0382C133.998 71.9505 131.7 70.6301 126.81 72.1001C126.68 70.0202 126.68 70.0202 126.547 67.8982C130.193 66.2197 132.822 65.8681 136.628 66.795C137.443 67.4576 138.257 68.1202 139.096 68.803C133.957 61.2945 129.239 54.7259 122.29 49.8138C120.53 53.1838 120.53 53.1838 119.614 56.941C116.261 60.9122 113.007 64.4393 108.556 66.0837C105.89 65.8855 104.508 65.6514 102.34 63.7129C100.049 59.9284 99.5939 58.0092 99.7287 53.1981C100.771 47.0642 103.064 44.4866 107.166 41.0547C109.658 40.2817 112.065 39.957 114.622 39.5879C115.107 39.1052 115.592 38.6226 116.092 38.1253C113.205 27.1616 107.384 18.5341 99.1798 13.2898C82.1508 2.76687 61.1983 5.02691 43.416 12.2324C34.4492 16.448 26.5933 21.2584 19.0948 28.8066C18.3403 29.5486 18.3403 29.5486 17.5707 30.3057C14.5953 33.2778 11.8587 36.2751 9.50101 40.0265C9.53044 41.01 9.55986 41.9935 9.59018 43.0068C9.59577 43.9526 9.60136 44.8984 9.60712 45.8729C7.49087 48.4436 7.49087 48.4436 5.19726 50.2607C4.76406 50.2008 4.33086 50.1408 3.88452 50.079C2.09205 46.6546 2.09205 46.6546 0.57519 42.9559C1.46738 40.5802 1.46738 40.5802 4.40729 37.655Z" fill="white"/>
</svg>
