<svg width="153" height="154" viewBox="0 0 153 154" fill="none" xmlns="http://www.w3.org/2000/svg">
<path d="M47.187 93.8476C47.3131 92.1421 47.4393 90.4366 47.5693 88.6794C44.3459 82.4345 41.1225 76.1896 37.8014 69.7554C41.1437 73.0094 41.1437 73.0094 44.4841 76.2953C44.9005 76.6933 45.317 77.0913 45.746 77.5013C46.3851 78.1244 46.3851 78.1244 47.037 78.76C48.1407 79.4458 48.1407 79.4458 49.5019 77.6513C50.1682 72.2348 50.1682 72.2348 49.88 69.5205C49.0004 67.447 49.0004 67.447 47.9264 65.7357C47.5592 66.0182 47.5592 66.0182 47.1845 66.3064C45.7333 66.9772 44.4213 65.5737 42.9563 64.2316C42.6545 63.9665 42.3526 63.7015 42.0416 63.4284C39.8454 61.4728 37.6825 59.2155 35.5249 56.6721C34.1616 55.6936 33.3502 55.919 32.1339 57.2982C30.5329 67.2154 32.9272 83.2268 33.9888 94.2333C34.4068 98.584 34.7473 102.622 34.9319 107.036C35.6077 107.614 35.6077 107.614 36.2973 108.204C36.9291 103.038 36.805 99.5352 36.3377 93.7869C35.7789 86.4712 35.453 79.5673 35.2722 72.2417C35.4856 72.8683 35.6989 73.4949 35.9187 74.1405C39.2116 83.5804 42.4391 89.8987 46.603 94.1935C46.7957 94.0794 46.9884 93.9652 47.187 93.8476Z" fill="white"/>
<path d="M138.953 59.8559C139.048 58.689 139.143 57.522 139.241 56.3197C138.885 55.3193 138.885 55.3193 138.493 54.761C138.225 55.6645 138.225 55.6645 137.951 56.5862C137.202 59.0988 136.452 61.5977 135.701 64.093C135.191 65.7939 134.681 67.495 134.171 69.1962C133.788 70.4678 133.788 70.4678 133.397 71.765C132.083 76.1535 130.892 80.3203 129.687 85.6206C129.846 86.4988 130.006 87.3771 130.17 88.282C137.099 68.4953 137.099 68.4953 138.953 59.8559Z" fill="white"/>
<path d="M96.7756 117.04C97.2907 114.347 97.2907 114.347 97.3842 111.883C95.5551 109.608 93.8728 109.732 91.9217 110.019C91.7523 110.748 91.5829 111.477 91.4084 112.228C91.1124 112.109 90.8164 111.99 90.5114 111.867C89.0301 111.425 87.5793 111.359 86.0948 111.31C83.8822 111.2 81.748 110.919 79.5521 109.972C79.298 111.066 79.044 112.159 78.7822 113.286C84.4541 119.855 90.9383 121.173 96.7756 117.04Z" fill="white"/>
<path d="M66.4878 110.371C66.9234 107.725 66.9234 107.725 67.1108 105.217C65.1633 102.539 63.544 101.386 61.3987 100.832C58.3702 99.9224 55.4896 98.2354 52.5417 96.0385C52.4209 97.3748 52.3001 98.7111 52.1757 100.088C54.7945 103.946 57.3283 106.453 60.1814 108.541C60.7645 108.996 60.7645 108.996 61.3594 109.459C61.9238 109.88 61.9238 109.88 62.4995 110.309C62.8368 110.561 63.1741 110.813 63.5216 111.073C64.6421 111.537 65.4206 111.316 66.4878 110.371Z" fill="white"/>
<path d="M118.885 95.5947C118.9 93.7947 118.9 93.7947 118.285 91.9413C118.081 91.4039 117.878 90.8665 117.668 90.3128C117.48 90.8298 117.293 91.3468 117.1 91.8794C115.217 96.889 113.596 99.7704 111.517 102.4C110.106 104.659 110.106 104.659 109.541 108.075C109.422 108.886 109.304 109.697 109.181 110.532C112.19 109.639 116.768 106.624 118.885 95.5947Z" fill="white"/>
</svg>
