<svg width="201" height="72" viewBox="0 0 201 72" fill="none" xmlns="http://www.w3.org/2000/svg">
<path d="M0.699153 62.3061C0.230321 61.634 0.34184 60.5703 1.14967 60.2182C7.62062 57.3998 14.09 54.5783 20.5617 51.7642C21.8646 51.1982 23.0758 53.0312 21.9122 54.0179C18.0401 57.304 13.8875 59.6179 9.27151 61.0901C27.9875 68.1913 47.3767 57.8659 62.3231 45.7567C76.8341 34.0006 89.9277 21.1044 106.694 12.8649C135.662 -1.37009 170.867 -4.07289 199.95 11.2442C200.653 11.6142 200.279 12.8393 199.53 12.4878C165.696 -3.44858 126.551 1.59669 95.363 21.9684C68.9769 39.2033 40.2962 79.7816 4.88552 62.0356C4.71298 61.9489 4.57824 61.8271 4.45979 61.6944C4.21618 61.7994 3.97294 61.9067 3.73055 62.0127C6.06902 65.0244 8.67415 67.2655 12.1543 69.1162C13.6454 69.9102 12.7704 72.5231 11.2783 71.717C6.84386 69.3198 3.65656 66.5501 0.699153 62.3061Z" fill="white"/>
</svg>
