<svg width="20" height="44" viewBox="0 0 20 46" fill="none" xmlns="http://www.w3.org/2000/svg">
<mask id="path-1-outside-1_555_1344" maskUnits="userSpaceOnUse" x="-1" y="-1" width="22" height="47" fill="black">
<rect fill="white" x="-1" y="-1" width="22" height="47"/>
<path d="M9.408 45V4.04L13.888 8.52H0.448V0.199997H19.776V45H9.408Z"/>
</mask>
<path d="M9.408 45H8.408V46H9.408V45ZM9.408 4.04L10.1151 3.33289L8.408 1.62578V4.04H9.408ZM13.888 8.52V9.52H16.3022L14.5951 7.81289L13.888 8.52ZM0.448 8.52H-0.552V9.52H0.448V8.52ZM0.448 0.199997V-0.800003H-0.552V0.199997H0.448ZM19.776 0.199997H20.776V-0.800003H19.776V0.199997ZM19.776 45V46H20.776V45H19.776ZM10.408 45V4.04H8.408V45H10.408ZM8.70089 4.7471L13.1809 9.2271L14.5951 7.81289L10.1151 3.33289L8.70089 4.7471ZM13.888 7.52H0.448V9.52H13.888V7.52ZM1.448 8.52V0.199997H-0.552V8.52H1.448ZM0.448 1.2H19.776V-0.800003H0.448V1.2ZM18.776 0.199997V45H20.776V0.199997H18.776ZM19.776 44H9.408V46H19.776V44Z" fill="white" mask="url(#path-1-outside-1_555_1344)"/>
</svg>
