<svg width="39" height="49" viewBox="0 0 39 48" fill="none" xmlns="http://www.w3.org/2000/svg">
<mask id="path-1-outside-1_555_1345" maskUnits="userSpaceOnUse" x="-2" y="-1" width="39" height="48" fill="black">
<rect fill="white" x="-2" y="-1" width="39" height="48"/>
<path d="M2.112 46V39.28L19.392 22.96C20.7573 21.7227 21.76 20.6133 22.4 19.632C23.04 18.6507 23.4667 17.7547 23.68 16.944C23.936 16.1333 24.064 15.3867 24.064 14.704C24.064 12.912 23.4453 11.5467 22.208 10.608C21.0133 9.62666 19.2427 9.136 16.896 9.136C15.0187 9.136 13.2693 9.49866 11.648 10.224C10.0693 10.9493 8.72533 12.08 7.616 13.616L0.064 8.752C1.77067 6.192 4.16 4.16533 7.232 2.672C10.304 1.17867 13.8453 0.431999 17.856 0.431999C21.184 0.431999 24.0853 0.986665 26.56 2.096C29.0773 3.16267 31.0187 4.67733 32.384 6.64C33.792 8.60267 34.496 10.9493 34.496 13.68C34.496 15.1307 34.304 16.5813 33.92 18.032C33.5787 19.44 32.8533 20.9333 31.744 22.512C30.6773 24.0907 29.0987 25.8613 27.008 27.824L12.672 41.328L10.688 37.552H35.968V46H2.112Z"/>
</mask>
<path d="M2.112 46H1.112V47H2.112V46ZM2.112 39.28L1.42538 38.553L1.112 38.849V39.28H2.112ZM19.392 22.96L18.7205 22.219L18.7129 22.2259L18.7054 22.233L19.392 22.96ZM22.4 19.632L23.2376 20.1783L22.4 19.632ZM23.68 16.944L22.7264 16.6429L22.7191 16.666L22.7129 16.6895L23.68 16.944ZM22.208 10.608L21.5733 11.3807L21.5882 11.393L21.6036 11.4047L22.208 10.608ZM11.648 10.224L11.2396 9.31113L11.2305 9.31532L11.648 10.224ZM7.616 13.616L7.07452 14.4567L7.87159 14.9701L8.42668 14.2015L7.616 13.616ZM0.064 8.752L-0.76805 8.1973L-1.33159 9.04261L-0.477477 9.59271L0.064 8.752ZM7.232 2.672L6.79481 1.77263H6.79481L7.232 2.672ZM26.56 2.096L26.1509 3.00851L26.1604 3.01273L26.1699 3.01675L26.56 2.096ZM32.384 6.64L31.5631 7.21106L31.5672 7.21702L31.5715 7.22291L32.384 6.64ZM33.92 18.032L32.9533 17.7761L32.9506 17.7862L32.9482 17.7964L33.92 18.032ZM31.744 22.512L30.9258 21.9371L30.9205 21.9445L30.9154 21.9521L31.744 22.512ZM27.008 27.824L26.3236 27.0949L26.3223 27.0961L27.008 27.824ZM12.672 41.328L11.7868 41.7931L12.3992 42.9588L13.3577 42.0559L12.672 41.328ZM10.688 37.552V36.552H9.03294L9.80276 38.0171L10.688 37.552ZM35.968 37.552H36.968V36.552H35.968V37.552ZM35.968 46V47H36.968V46H35.968ZM3.112 46V39.28H1.112V46H3.112ZM2.79862 40.007L20.0786 23.687L18.7054 22.233L1.42538 38.553L2.79862 40.007ZM20.0635 23.701C21.4605 22.4349 22.5321 21.2601 23.2376 20.1783L21.5624 19.0857C20.9879 19.9666 20.0541 21.0104 18.7205 22.219L20.0635 23.701ZM23.2376 20.1783C23.9147 19.1401 24.398 18.1448 24.6471 17.1985L22.7129 16.6895C22.5353 17.3645 22.1653 18.1613 21.5624 19.0857L23.2376 20.1783ZM24.6336 17.2451C24.9131 16.3599 25.064 15.5103 25.064 14.704H23.064C23.064 15.263 22.9589 15.9068 22.7264 16.6429L24.6336 17.2451ZM25.064 14.704C25.064 12.6538 24.3395 10.9698 22.8124 9.81131L21.6036 11.4047C22.5512 12.1235 23.064 13.1702 23.064 14.704H25.064ZM22.8427 9.83527C21.3971 8.64775 19.3595 8.136 16.896 8.136V10.136C19.1259 10.136 20.6296 10.6056 21.5733 11.3807L22.8427 9.83527ZM16.896 8.136C14.8861 8.136 12.9967 8.52513 11.2396 9.31118L12.0564 11.1368C13.542 10.4722 15.1512 10.136 16.896 10.136V8.136ZM11.2305 9.31532C9.48112 10.1191 8.00624 11.3677 6.80532 13.0305L8.42668 14.2015C9.44442 12.7923 10.6575 11.7796 12.0655 11.1327L11.2305 9.31532ZM8.15748 12.7753L0.605477 7.91128L-0.477477 9.59271L7.07452 14.4567L8.15748 12.7753ZM0.89605 9.3067C2.4935 6.91052 4.73904 4.99575 7.66919 3.57137L6.79481 1.77263C3.58096 3.33492 1.04783 5.47347 -0.76805 8.1973L0.89605 9.3067ZM7.66919 3.57137C10.5832 2.15484 13.9706 1.432 17.856 1.432V-0.568001C13.7201 -0.568001 10.0248 0.202488 6.79481 1.77263L7.66919 3.57137ZM17.856 1.432C21.0743 1.432 23.8307 1.96839 26.1509 3.00851L26.9691 1.18349C24.34 0.00493622 21.2937 -0.568001 17.856 -0.568001V1.432ZM26.1699 3.01675C28.539 4.02063 30.3203 5.42454 31.5631 7.21106L33.2049 6.06894C31.717 3.93012 29.6157 2.3047 26.9502 1.17525L26.1699 3.01675ZM31.5715 7.22291C32.842 8.99393 33.496 11.13 33.496 13.68H35.496C35.496 10.7686 34.742 8.2114 33.1965 6.05709L31.5715 7.22291ZM33.496 13.68C33.496 15.0414 33.316 16.4061 32.9533 17.7761L34.8867 18.2879C35.292 16.7566 35.496 15.22 35.496 13.68H33.496ZM32.9482 17.7964C32.6443 19.0496 31.9857 20.4288 30.9258 21.9371L32.5622 23.0869C33.721 21.4379 34.513 19.8304 34.8919 18.2676L32.9482 17.7964ZM30.9154 21.9521C29.9056 23.4467 28.3843 25.1603 26.3236 27.0949L27.6924 28.5531C29.813 26.5623 31.4491 24.7346 32.5726 23.0719L30.9154 21.9521ZM26.3223 27.0961L11.9863 40.6001L13.3577 42.0559L27.6937 28.5519L26.3223 27.0961ZM13.5572 40.8629L11.5732 37.0869L9.80276 38.0171L11.7868 41.7931L13.5572 40.8629ZM10.688 38.552H35.968V36.552H10.688V38.552ZM34.968 37.552V46H36.968V37.552H34.968ZM35.968 45H2.112V47H35.968V45Z" fill="white" mask="url(#path-1-outside-1_555_1345)"/>
</svg>
