<svg width="39" height="48" viewBox="0 0 39 48" fill="none" xmlns="http://www.w3.org/2000/svg">
<mask id="path-1-outside-1_555_1346" maskUnits="userSpaceOnUse" x="-1" y="-1" width="39" height="48" fill="black">
<rect fill="white" x="-1" y="-1" width="39" height="48"/>
<path d="M18.024 45.768C14.9093 45.768 11.816 45.3627 8.744 44.552C5.672 43.6987 3.06933 42.504 0.936 40.968L4.968 33.032C6.67467 34.2693 8.65867 35.2507 10.92 35.976C13.1813 36.7013 15.464 37.064 17.768 37.064C20.3707 37.064 22.4187 36.552 23.912 35.528C25.4053 34.504 26.152 33.096 26.152 31.304C26.152 29.5973 25.4907 28.2533 24.168 27.272C22.8453 26.2907 20.712 25.8 17.768 25.8H13.032V18.952L25.512 4.808L26.664 8.52H3.176V0.199997H34.536V6.92L22.12 21.064L16.872 18.056H19.88C25.384 18.056 29.544 19.2933 32.36 21.768C35.176 24.2427 36.584 27.4213 36.584 31.304C36.584 33.8213 35.9227 36.1893 34.6 38.408C33.2773 40.584 31.2507 42.3547 28.52 43.72C25.7893 45.0853 22.2907 45.768 18.024 45.768Z"/>
</mask>
<path d="M8.744 44.552L8.47633 45.5156L8.48885 45.5189L8.744 44.552ZM0.936 40.968L0.0444672 40.515L-0.343624 41.2789L0.351695 41.7795L0.936 40.968ZM4.968 33.032L5.55497 32.2224L4.60689 31.535L4.07647 32.579L4.968 33.032ZM10.92 35.976L10.6146 36.9282L10.92 35.976ZM23.912 35.528L24.4775 36.3527L23.912 35.528ZM13.032 25.8H12.032V26.8H13.032V25.8ZM13.032 18.952L12.2822 18.2904L12.032 18.5739V18.952H13.032ZM25.512 4.808L26.4671 4.5116L25.9396 2.81196L24.7622 4.14638L25.512 4.808ZM26.664 8.52V9.52H28.0214L27.6191 8.2236L26.664 8.52ZM3.176 8.52H2.176V9.52H3.176V8.52ZM3.176 0.199997V-0.800003H2.176V0.199997H3.176ZM34.536 0.199997H35.536V-0.800003H34.536V0.199997ZM34.536 6.92L35.2875 7.57971L35.536 7.29665V6.92H34.536ZM22.12 21.064L21.6227 21.9316L22.3321 22.3382L22.8715 21.7237L22.12 21.064ZM16.872 18.056V17.056H13.1164L16.3747 18.9236L16.872 18.056ZM32.36 21.768L31.6999 22.5192L32.36 21.768ZM34.6 38.408L35.4546 38.9274L35.459 38.9201L34.6 38.408ZM28.52 43.72L28.0728 42.8256L28.52 43.72ZM18.024 44.768C14.9972 44.768 11.9896 44.3742 8.99915 43.5851L8.48885 45.5189C11.6424 46.3511 14.8215 46.768 18.024 46.768V44.768ZM9.01164 43.5885C6.02987 42.7602 3.53993 41.6106 1.5203 40.1565L0.351695 41.7795C2.59874 43.3974 5.31413 44.6371 8.47636 45.5155L9.01164 43.5885ZM1.82753 41.421L5.85953 33.485L4.07647 32.579L0.0444672 40.515L1.82753 41.421ZM4.38103 33.8416C6.18349 35.1484 8.26503 36.1746 10.6146 36.9282L11.2254 35.0238C9.05231 34.3267 7.16584 33.3903 5.55497 32.2224L4.38103 33.8416ZM10.6146 36.9282C12.9716 37.6842 15.3572 38.064 17.768 38.064V36.064C15.5708 36.064 13.3911 35.7184 11.2254 35.0238L10.6146 36.9282ZM17.768 38.064C20.4881 38.064 22.7595 37.5308 24.4775 36.3527L23.3465 34.7033C22.0778 35.5732 20.2533 36.064 17.768 36.064V38.064ZM24.4775 36.3527C26.2394 35.1446 27.152 33.4298 27.152 31.304H25.152C25.152 32.7622 24.5713 33.8634 23.3465 34.7033L24.4775 36.3527ZM27.152 31.304C27.152 29.2942 26.3514 27.6468 24.7638 26.4689L23.5722 28.0751C24.6299 28.8599 25.152 29.9004 25.152 31.304H27.152ZM24.7638 26.4689C23.1788 25.2929 20.7777 24.8 17.768 24.8V26.8C20.6463 26.8 22.5119 27.2884 23.5722 28.0751L24.7638 26.4689ZM17.768 24.8H13.032V26.8H17.768V24.8ZM14.032 25.8V18.952H12.032V25.8H14.032ZM13.7818 19.6136L26.2618 5.46962L24.7622 4.14638L12.2822 18.2904L13.7818 19.6136ZM24.5569 5.1044L25.7089 8.8164L27.6191 8.2236L26.4671 4.5116L24.5569 5.1044ZM26.664 7.52H3.176V9.52H26.664V7.52ZM4.176 8.52V0.199997H2.176V8.52H4.176ZM3.176 1.2H34.536V-0.800003H3.176V1.2ZM33.536 0.199997V6.92H35.536V0.199997H33.536ZM33.7845 6.26029L21.3685 20.4043L22.8715 21.7237L35.2875 7.57971L33.7845 6.26029ZM22.6173 20.1964L17.3693 17.1884L16.3747 18.9236L21.6227 21.9316L22.6173 20.1964ZM16.872 19.056H19.88V17.056H16.872V19.056ZM19.88 19.056C25.2523 19.056 29.1355 20.2656 31.6999 22.5192L33.0201 21.0168C29.9525 18.3211 25.5157 17.056 19.88 17.056V19.056ZM31.6999 22.5192C34.2912 24.7964 35.584 27.6972 35.584 31.304H37.584C37.584 27.1454 36.0608 23.689 33.0201 21.0168L31.6999 22.5192ZM35.584 31.304C35.584 33.6362 34.9739 35.8279 33.7411 37.8959L35.459 38.9201C36.8714 36.5508 37.584 34.0065 37.584 31.304H35.584ZM33.7455 37.8886C32.5385 39.8742 30.6689 41.5275 28.0728 42.8256L28.9672 44.6144C31.8324 43.1818 34.0162 41.2938 35.4545 38.9274L33.7455 37.8886ZM28.0728 42.8256C25.5249 44.0995 22.1934 44.768 18.024 44.768V46.768C22.3879 46.768 26.0537 46.0712 28.9672 44.6144L28.0728 42.8256Z" fill="white" mask="url(#path-1-outside-1_555_1346)"/>
</svg>
