<svg width="45" height="48" viewBox="0 0 45 48" fill="none" xmlns="http://www.w3.org/2000/svg">
<mask id="path-1-outside-1_555_1347" maskUnits="userSpaceOnUse" x="-1" y="-1" width="45" height="48" fill="black">
<rect fill="white" x="-1" y="-1" width="45" height="48"/>
<path d="M0.984 35.592V28.616L22.104 0.199997H32.984L12.312 28.616L7.256 27.144H42.52V35.592H0.984ZM25.112 45V35.592L25.432 27.144V18.76H35.224V45H25.112Z"/>
</mask>
<path d="M0.984 35.592H-0.0159999V36.592H0.984V35.592ZM0.984 28.616L0.181405 28.0195L-0.0159999 28.2851V28.616H0.984ZM22.104 0.199997V-0.800003H21.6013L21.3014 -0.396526L22.104 0.199997ZM32.984 0.199997L33.7927 0.788277L34.9481 -0.800003H32.984V0.199997ZM12.312 28.616L12.0325 29.5761L12.7072 29.7726L13.1207 29.2043L12.312 28.616ZM7.256 27.144V26.144L6.97647 28.1041L7.256 27.144ZM42.52 27.144H43.52V26.144H42.52V27.144ZM42.52 35.592V36.592H43.52V35.592H42.52ZM25.112 45H24.112V46H25.112V45ZM25.112 35.592L24.1127 35.5541L24.112 35.5731V35.592H25.112ZM25.432 27.144L26.4313 27.1819L26.432 27.1629V27.144H25.432ZM25.432 18.76V17.76H24.432V18.76H25.432ZM35.224 18.76H36.224V17.76H35.224V18.76ZM35.224 45V46H36.224V45H35.224ZM1.984 35.592V28.616H-0.0159999V35.592H1.984ZM1.7866 29.2125L22.9066 0.79652L21.3014 -0.396526L0.181405 28.0195L1.7866 29.2125ZM22.104 1.2H32.984V-0.800003H22.104V1.2ZM32.1753 -0.388283L11.5033 28.0277L13.1207 29.2043L33.7927 0.788277L32.1753 -0.388283ZM12.5915 27.6559L7.53553 26.1839L6.97647 28.1041L12.0325 29.5761L12.5915 27.6559ZM7.256 28.144H42.52V26.144H7.256V28.144ZM41.52 27.144V35.592H43.52V27.144H41.52ZM42.52 34.592H0.984V36.592H42.52V34.592ZM26.112 45V35.592H24.112V45H26.112ZM26.1113 35.6299L26.4313 27.1819L24.4327 27.1061L24.1127 35.5541L26.1113 35.6299ZM26.432 27.144V18.76H24.432V27.144H26.432ZM25.432 19.76H35.224V17.76H25.432V19.76ZM34.224 18.76V45H36.224V18.76H34.224ZM35.224 44H25.112V46H35.224V44Z" fill="white" mask="url(#path-1-outside-1_555_1347)"/>
</svg>
