<svg width="16" height="25" viewBox="0 0 16 25" fill="none" xmlns="http://www.w3.org/2000/svg">
<mask id="path-1-outside-1_4361_396" maskUnits="userSpaceOnUse" x="0.527344" y="4" width="15" height="18" fill="black">
<rect fill="white" x="0.527344" y="4" width="15" height="18"/>
<path d="M7.75664 20.246C6.75916 20.246 5.76851 20.1161 4.7847 19.8565C3.80088 19.5832 2.96737 19.2006 2.28416 18.7087L3.57542 16.1672C4.12198 16.5635 4.75737 16.8777 5.48157 17.11C6.20577 17.3423 6.9368 17.4585 7.67466 17.4585C8.50817 17.4585 9.16405 17.2945 9.6423 16.9666C10.1205 16.6386 10.3597 16.1877 10.3597 15.6138C10.3597 15.0672 10.1479 14.6368 9.72428 14.3226C9.30069 14.0083 8.61749 13.8511 7.67466 13.8511H6.15794V11.658L10.1547 7.12838L10.5236 8.31716H3.00153V5.65266H13.0447V7.80476L9.0684 12.3344L7.38771 11.3711H8.35103C10.1137 11.3711 11.446 11.7674 12.3478 12.5599C13.2496 13.3524 13.7005 14.3704 13.7005 15.6138C13.7005 16.42 13.4888 17.1784 13.0652 17.8889C12.6416 18.5858 11.9925 19.1528 11.118 19.5901C10.2435 20.0273 9.12306 20.246 7.75664 20.246Z"/>
</mask>
<path d="M4.7847 19.8565L4.44184 21.0908L4.44983 21.093L4.45784 21.0951L4.7847 19.8565ZM2.28416 18.7087L1.14209 18.1285L0.644945 19.107L1.53566 19.7483L2.28416 18.7087ZM3.57542 16.1672L4.32733 15.1301L3.11283 14.2496L2.43335 15.587L3.57542 16.1672ZM5.48157 17.11L5.09031 18.3298L5.09031 18.3298L5.48157 17.11ZM9.6423 16.9666L10.3667 18.0231L10.3667 18.0231L9.6423 16.9666ZM6.15794 13.8511H4.87693V15.1322H6.15794V13.8511ZM6.15794 11.658L5.19739 10.8105L4.87693 11.1737V11.658H6.15794ZM10.1547 7.12838L11.3781 6.74869L10.7024 4.57143L9.19415 6.28084L10.1547 7.12838ZM10.5236 8.31716V9.59818H12.2625L11.7471 7.93747L10.5236 8.31716ZM3.00153 8.31716H1.72051V9.59818H3.00153V8.31716ZM3.00153 5.65266V4.37164H1.72051V5.65266H3.00153ZM13.0447 5.65266H14.3257V4.37164H13.0447V5.65266ZM13.0447 7.80476L14.0074 8.64985L14.3257 8.28725V7.80476H13.0447ZM9.0684 12.3344L8.43138 13.4458L9.34012 13.9667L10.0311 13.1795L9.0684 12.3344ZM7.38771 11.3711V10.0901H2.57671L6.75069 12.4825L7.38771 11.3711ZM12.3478 12.5599L11.5022 13.5221L11.5022 13.5221L12.3478 12.5599ZM13.0652 17.8889L14.1599 18.5543L14.1655 18.5449L13.0652 17.8889ZM11.118 19.5901L10.5451 18.4443L10.5451 18.4443L11.118 19.5901ZM7.75664 18.9649C6.87169 18.9649 5.99085 18.85 5.11155 18.6179L4.45784 21.0951C5.54617 21.3823 6.64663 21.527 7.75664 21.527V18.9649ZM5.12755 18.6222C4.25931 18.3811 3.5702 18.0562 3.03266 17.6692L1.53566 19.7483C2.36453 20.3451 3.34244 20.7854 4.44184 21.0908L5.12755 18.6222ZM3.42622 19.289L4.71748 16.7475L2.43335 15.587L1.14209 18.1285L3.42622 19.289ZM2.82351 17.2043C3.49279 17.6896 4.25311 18.0613 5.09031 18.3298L5.87282 15.8902C5.26162 15.6942 4.75118 15.4374 4.32733 15.1301L2.82351 17.2043ZM5.09031 18.3298C5.93704 18.6014 6.79993 18.7395 7.67466 18.7395V16.1775C7.07366 16.1775 6.47449 16.0832 5.87282 15.8902L5.09031 18.3298ZM7.67466 18.7395C8.65858 18.7395 9.60067 18.5484 10.3667 18.0231L8.91785 15.9101C8.72744 16.0406 8.35776 16.1775 7.67466 16.1775V18.7395ZM10.3667 18.0231C11.189 17.4592 11.6407 16.6154 11.6407 15.6138H9.07865C9.07865 15.7179 9.05847 15.7636 9.04859 15.7823C9.03845 15.8014 9.0098 15.847 8.91785 15.9101L10.3667 18.0231ZM11.6407 15.6138C11.6407 14.679 11.2505 13.8598 10.4876 13.2938L8.96099 15.3513C9.02564 15.3993 9.04423 15.432 9.05142 15.4466C9.05938 15.4628 9.07865 15.5092 9.07865 15.6138H11.6407ZM10.4876 13.2938C9.72784 12.7301 8.7016 12.5701 7.67466 12.5701V15.1322C8.53337 15.1322 8.87354 15.2864 8.96099 15.3513L10.4876 13.2938ZM7.67466 12.5701H6.15794V15.1322H7.67466V12.5701ZM7.43895 13.8511V11.658H4.87693V13.8511H7.43895ZM7.11849 12.5056L11.1153 7.97593L9.19415 6.28084L5.19739 10.8105L7.11849 12.5056ZM8.93125 7.50808L9.30018 8.69685L11.7471 7.93747L11.3781 6.74869L8.93125 7.50808ZM10.5236 7.03615H3.00153V9.59818H10.5236V7.03615ZM4.28254 8.31716V5.65266H1.72051V8.31716H4.28254ZM3.00153 6.93367H13.0447V4.37164H3.00153V6.93367ZM11.7637 5.65266V7.80476H14.3257V5.65266H11.7637ZM12.082 6.95967L8.10569 11.4893L10.0311 13.1795L14.0074 8.64985L12.082 6.95967ZM9.70542 11.223L8.02473 10.2597L6.75069 12.4825L8.43138 13.4458L9.70542 11.223ZM7.38771 12.6521H8.35103V10.0901H7.38771V12.6521ZM8.35103 12.6521C9.94499 12.6521 10.9227 13.0129 11.5022 13.5221L13.1934 11.5976C11.9693 10.5219 10.2824 10.0901 8.35103 10.0901V12.6521ZM11.5022 13.5221C12.1162 14.0617 12.4195 14.7238 12.4195 15.6138H14.9816C14.9816 14.0169 14.3831 12.6431 13.1934 11.5976L11.5022 13.5221ZM12.4195 15.6138C12.4195 16.1828 12.2734 16.7153 11.9648 17.2329L14.1655 18.5449C14.7041 17.6414 14.9816 16.6572 14.9816 15.6138H12.4195ZM11.9705 17.2235C11.6951 17.6766 11.2473 18.0932 10.5451 18.4443L11.6909 20.7358C12.7378 20.2124 13.588 19.495 14.1598 18.5543L11.9705 17.2235ZM10.5451 18.4443C9.90481 18.7645 8.99852 18.9649 7.75664 18.9649V21.527C9.2476 21.527 10.5822 21.2902 11.6909 20.7358L10.5451 18.4443Z" fill="white" mask="url(#path-1-outside-1_4361_396)"/>
</svg>
