<svg width="15" height="25" viewBox="0 0 15 25" fill="none" xmlns="http://www.w3.org/2000/svg">
<mask id="path-1-outside-1_4361_394" maskUnits="userSpaceOnUse" x="2" y="3" width="10" height="19" fill="black">
<rect fill="white" x="2" y="3" width="10" height="19"/>
<path d="M6.49977 20V6.88243L7.9345 8.31716H3.6303V5.65266H9.82015V20H6.49977Z"/>
</mask>
<path d="M6.49977 20H5.21876V21.281H6.49977V20ZM6.49977 6.88243L7.40558 5.97662L5.21876 3.78979V6.88243H6.49977ZM7.9345 8.31716V9.59818H11.0271L8.84032 7.41135L7.9345 8.31716ZM3.6303 8.31716H2.34929V9.59818H3.6303V8.31716ZM3.6303 5.65266V4.37164H2.34929V5.65266H3.6303ZM9.82015 5.65266H11.1012V4.37164H9.82015V5.65266ZM9.82015 20V21.281H11.1012V20H9.82015ZM7.78078 20V6.88243H5.21876V20H7.78078ZM5.59396 7.78824L7.02869 9.22298L8.84032 7.41135L7.40558 5.97662L5.59396 7.78824ZM7.9345 7.03615H3.6303V9.59818H7.9345V7.03615ZM4.91131 8.31716V5.65266H2.34929V8.31716H4.91131ZM3.6303 6.93367H9.82015V4.37164H3.6303V6.93367ZM8.53914 5.65266V20H11.1012V5.65266H8.53914ZM9.82015 18.719H6.49977V21.281H9.82015V18.719Z" fill="white" mask="url(#path-1-outside-1_4361_394)"/>
</svg>
