<svg width="21" height="25" viewBox="0 0 21 25" fill="none" xmlns="http://www.w3.org/2000/svg">
<mask id="path-1-outside-1_4361_397" maskUnits="userSpaceOnUse" x="2" y="4" width="17" height="18" fill="black">
<rect fill="white" x="2" y="4" width="17" height="18"/>
<path d="M4.0698 16.9871V14.753L10.8335 5.65266H14.3179L7.69762 14.753L6.07842 14.2816H17.3718V16.9871H4.0698ZM11.7969 20V16.9871L11.8993 14.2816V11.5966H15.0353V20H11.7969Z"/>
</mask>
<path d="M4.0698 16.9871H2.78878V18.2681H4.0698V16.9871ZM4.0698 14.753L3.04166 13.9888L2.78878 14.3291V14.753H4.0698ZM10.8335 5.65266V4.37164H10.1896L9.80541 4.8885L10.8335 5.65266ZM14.3179 5.65266L15.3538 6.40625L16.8339 4.37164H14.3179V5.65266ZM7.69762 14.753L7.33954 15.9829L8.20392 16.2346L8.73352 15.5066L7.69762 14.753ZM6.07842 14.2816V13.0005L5.72034 15.5115L6.07842 14.2816ZM17.3718 14.2816H18.6528V13.0005H17.3718V14.2816ZM17.3718 16.9871V18.2681H18.6528V16.9871H17.3718ZM11.7969 20H10.5159V21.281H11.7969V20ZM11.7969 16.9871L10.5168 16.9386L10.5159 16.9628V16.9871H11.7969ZM11.8993 14.2816L13.1794 14.33L13.1804 14.3058V14.2816H11.8993ZM11.8993 11.5966V10.3155H10.6183V11.5966H11.8993ZM15.0353 11.5966H16.3163V10.3155H15.0353V11.5966ZM15.0353 20V21.281H16.3163V20H15.0353ZM5.35081 16.9871V14.753H2.78878V16.9871H5.35081ZM5.09793 15.5171L11.8617 6.41681L9.80541 4.8885L3.04166 13.9888L5.09793 15.5171ZM10.8335 6.93367H14.3179V4.37164H10.8335V6.93367ZM13.282 4.89906L6.66172 13.9994L8.73352 15.5066L15.3538 6.40625L13.282 4.89906ZM8.05571 13.523L6.43651 13.0516L5.72034 15.5115L7.33954 15.9829L8.05571 13.523ZM6.07842 15.5626H17.3718V13.0005H6.07842V15.5626ZM16.0908 14.2816V16.9871H18.6528V14.2816H16.0908ZM17.3718 15.706H4.0698V18.2681H17.3718V15.706ZM13.0779 20V16.9871H10.5159V20H13.0779ZM13.077 17.0355L13.1794 14.33L10.6193 14.2331L10.5168 16.9386L13.077 17.0355ZM13.1804 14.2816V11.5966H10.6183V14.2816H13.1804ZM11.8993 12.8776H15.0353V10.3155H11.8993V12.8776ZM13.7543 11.5966V20H16.3163V11.5966H13.7543ZM15.0353 18.719H11.7969V21.281H15.0353V18.719Z" fill="white" mask="url(#path-1-outside-1_4361_397)"/>
</svg>
