<svg width="17" height="25" viewBox="0 0 17 25" fill="none" xmlns="http://www.w3.org/2000/svg">
<mask id="path-1-outside-1_4361_395" maskUnits="userSpaceOnUse" x="0" y="4" width="16" height="18" fill="black">
<rect fill="white" y="4" width="16" height="18"/>
<path d="M3.1316 20V17.8479L8.66557 12.6214C9.10282 12.2251 9.42393 11.8698 9.62889 11.5556C9.83385 11.2413 9.9705 10.9543 10.0388 10.6947C10.1208 10.4351 10.1618 10.196 10.1618 9.97736C10.1618 9.40346 9.96366 8.96621 9.5674 8.6656C9.18481 8.35132 8.61775 8.19419 7.86622 8.19419C7.265 8.19419 6.70477 8.31033 6.18553 8.54262C5.67996 8.77491 5.24954 9.13701 4.89427 9.62892L2.47572 8.07121C3.02228 7.25136 3.78747 6.60232 4.77129 6.12407C5.75511 5.64583 6.88923 5.4067 8.17366 5.4067C9.23947 5.4067 10.1686 5.58434 10.9611 5.9396C11.7673 6.28121 12.389 6.76629 12.8263 7.39484C13.2772 8.02339 13.5027 8.77491 13.5027 9.64942C13.5027 10.114 13.4412 10.5786 13.3182 11.0432C13.2089 11.4941 12.9766 11.9723 12.6213 12.4779C12.2797 12.9835 11.7742 13.5505 11.1046 14.1791L6.51347 18.5038L5.87809 17.2945H13.9741V20H3.1316Z"/>
</mask>
<path d="M3.1316 20H1.85058V21.281H3.1316V20ZM3.1316 17.8479L2.25202 16.9166L1.85058 17.2957V17.8479H3.1316ZM8.66557 12.6214L7.80535 11.6722L7.79558 11.681L7.786 11.6901L8.66557 12.6214ZM9.62889 11.5556L10.7019 12.2553L10.7019 12.2553L9.62889 11.5556ZM10.0388 10.6947L8.81727 10.309L8.8079 10.3386L8.79998 10.3687L10.0388 10.6947ZM9.5674 8.6656L8.75429 9.65547L8.77344 9.6712L8.79318 9.68617L9.5674 8.6656ZM6.18553 8.54262L5.66238 7.37323L5.65071 7.3786L6.18553 8.54262ZM4.89427 9.62892L4.20063 10.7059L5.22168 11.3635L5.93276 10.3789L4.89427 9.62892ZM2.47572 8.07121L1.40985 7.36063L0.68795 8.44348L1.78208 9.14818L2.47572 8.07121ZM4.77129 6.12407L4.21124 4.97197L4.21124 4.97197L4.77129 6.12407ZM10.9611 5.9396L10.4371 7.10854L10.4492 7.11394L10.4614 7.1191L10.9611 5.9396ZM12.8263 7.39484L11.7747 8.12638L11.78 8.134L11.7854 8.14155L12.8263 7.39484ZM13.3182 11.0432L12.0798 10.7154L12.0764 10.7283L12.0733 10.7414L13.3182 11.0432ZM12.6213 12.4779L11.5732 11.7414L11.5665 11.751L11.5599 11.7607L12.6213 12.4779ZM11.1046 14.1791L10.2278 13.2451L10.2263 13.2466L11.1046 14.1791ZM6.51347 18.5038L5.37946 19.0996L6.16401 20.5928L7.39182 19.4362L6.51347 18.5038ZM5.87809 17.2945V16.0135H3.75794L4.74408 17.8903L5.87809 17.2945ZM13.9741 17.2945H15.2551V16.0135H13.9741V17.2945ZM13.9741 20V21.281H15.2551V20H13.9741ZM4.41261 20V17.8479H1.85058V20H4.41261ZM4.01117 18.7792L9.54514 13.5527L7.786 11.6901L2.25202 16.9166L4.01117 18.7792ZM9.5258 13.5706C10.0036 13.1375 10.413 12.6983 10.7019 12.2553L8.5559 10.8558C8.43489 11.0413 8.202 11.3127 7.80535 11.6722L9.5258 13.5706ZM10.7019 12.2553C10.9543 11.8682 11.1636 11.4541 11.2777 11.0207L8.79998 10.3687C8.7774 10.4545 8.71336 10.6144 8.5559 10.8558L10.7019 12.2553ZM11.2604 11.0805C11.3725 10.7253 11.4428 10.3544 11.4428 9.97736H8.88078C8.88078 10.0376 8.86908 10.1449 8.81727 10.309L11.2604 11.0805ZM11.4428 9.97736C11.4428 9.07273 11.1091 8.22723 10.3416 7.64503L8.79318 9.68617C8.82795 9.71255 8.83848 9.73028 8.84638 9.74771C8.85693 9.77099 8.88078 9.83767 8.88078 9.97736H11.4428ZM10.3805 7.67573C9.67637 7.09732 8.76739 6.91317 7.86622 6.91317V9.4752C8.46811 9.4752 8.69325 9.60533 8.75429 9.65547L10.3805 7.67573ZM7.86622 6.91317C7.09517 6.91317 6.35551 7.06322 5.66241 7.37329L6.70865 9.71195C7.05403 9.55745 7.43482 9.4752 7.86622 9.4752V6.91317ZM5.65071 7.3786C4.92645 7.71136 4.32837 8.22454 3.85578 8.8789L5.93276 10.3789C6.1707 10.0495 6.43347 9.83846 6.72035 9.70665L5.65071 7.3786ZM5.58791 8.55195L3.16936 6.99424L1.78208 9.14818L4.20063 10.7059L5.58791 8.55195ZM3.54158 8.78179C3.94824 8.1718 4.52923 7.66609 5.33134 7.27617L4.21124 4.97197C3.04572 5.53854 2.09632 6.33092 1.40985 7.36063L3.54158 8.78179ZM5.33134 7.27617C6.11275 6.89632 7.04966 6.68772 8.17366 6.68772V4.12569C6.7288 4.12569 5.39747 4.39533 4.21124 4.97197L5.33134 7.27617ZM8.17366 6.68772C9.09889 6.68772 9.84243 6.84194 10.4371 7.10854L11.4852 4.77067C10.4948 4.32673 9.38004 4.12569 8.17366 4.12569V6.68772ZM10.4614 7.1191C11.0777 7.38028 11.4944 7.72347 11.7747 8.12638L13.8779 6.66329C13.2837 5.8091 12.4569 5.18214 11.4609 4.76011L10.4614 7.1191ZM11.7854 8.14155C12.0602 8.5246 12.2217 9.00639 12.2217 9.64942H14.7837C14.7837 8.54344 14.4942 7.52218 13.8672 6.64812L11.7854 8.14155ZM12.2217 9.64942C12.2217 9.99959 12.1755 10.354 12.0798 10.7154L14.5566 11.371C14.7069 10.8031 14.7837 10.2284 14.7837 9.64942H12.2217ZM12.0733 10.7414C12.012 10.994 11.8651 11.326 11.5732 11.7414L13.6695 13.2144C14.0881 12.6186 14.4058 11.9941 14.5632 11.345L12.0733 10.7414ZM11.5599 11.7607C11.2911 12.1585 10.8591 12.6526 10.2278 13.2451L11.9814 15.113C12.6893 14.4485 13.2684 13.8084 13.6828 13.1951L11.5599 11.7607ZM10.2263 13.2466L5.63512 17.5713L7.39182 19.4362L11.983 15.1115L10.2263 13.2466ZM7.64748 17.9079L7.0121 16.6987L4.74408 17.8903L5.37946 19.0996L7.64748 17.9079ZM5.87809 18.5755H13.9741V16.0135H5.87809V18.5755ZM12.6931 17.2945V20H15.2551V17.2945H12.6931ZM13.9741 18.719H3.1316V21.281H13.9741V18.719Z" fill="white" mask="url(#path-1-outside-1_4361_395)"/>
</svg>
