<svg width="157" height="43" viewBox="0 0 157 43" fill="none" xmlns="http://www.w3.org/2000/svg">
<path d="M155.559 22.9489C154.048 20.3884 154.048 20.3884 152.014 18.6338C148.138 15.2065 145.359 10.5385 142.39 6.14149C141.688 5.13525 141.688 5.13525 140.971 4.10868C140.345 3.18696 140.345 3.18696 139.705 2.24662C138.409 0.944644 138.409 0.944644 136.762 0.782411C135.29 1.23581 135.29 1.23581 134.127 2.99684C133.231 5.48216 132.936 7.4571 132.771 10.107C132.716 10.9114 132.661 11.7158 132.604 12.5446C132.493 14.8902 132.43 17.2294 132.394 19.5754C129.073 20.3276 125.83 20.4479 122.474 20.5458C121.39 20.5812 120.306 20.6169 119.223 20.6528C118.672 20.6707 118.121 20.6887 117.554 20.7072C112.183 20.8918 106.822 21.1871 101.455 21.5779C96.0697 21.9699 96.0697 21.9699 90.6829 22.2928C82.5102 22.7379 74.3822 23.6649 66.2325 24.6331C64.1716 24.8778 62.1106 25.1184 60.0493 25.3574C57.0443 25.7062 54.0399 26.0618 51.0355 26.4206C49.4819 26.6046 47.9279 26.7832 46.3738 26.9606C40.7781 27.6116 35.2344 28.4704 29.673 29.4883C26.6965 30.031 23.7288 30.5089 20.7355 30.8847C16.8926 31.3733 13.1069 32.1412 9.29906 32.9488C7.5242 33.3118 5.7648 33.6154 3.97868 33.8662C1.82315 34.2445 1.82315 34.2445 0.00155063 35.4775C0.343217 36.1471 0.684883 36.8167 1.0369 37.5066C4.96986 36.9871 8.90088 36.4506 12.8288 35.8702C13.7177 35.7392 13.7177 35.7392 14.6247 35.6055C15.7969 35.4321 16.9689 35.2574 18.1408 35.0811C20.818 34.6856 23.4852 34.3329 26.1734 34.1C29.1975 33.8357 32.2001 33.4169 35.2129 32.9833C42.2972 31.9652 49.3306 31.2184 56.4454 30.8145C59.5189 30.6388 62.5826 30.3609 65.6513 30.0576C76.2556 29.0291 86.8704 28.2832 97.4915 27.865C100.858 27.732 104.223 27.5687 107.589 27.3716C108.37 27.3266 109.15 27.2816 109.955 27.2353C111.469 27.1469 112.983 27.0553 114.496 26.9599C118.567 26.7256 122.447 26.8071 126.488 27.2127C128.049 27.1052 129.61 26.9739 131.167 26.776C131.338 29.4427 131.288 32.029 131.129 34.707C131.067 35.8239 131.067 35.8239 131.004 36.9635C130.919 38.8821 130.919 38.8821 129.926 40.3552C130.582 41.1124 131.238 41.8696 131.914 42.6497C134.835 41.961 137.057 39.9612 139.471 38.047C143.821 34.6501 148.258 31.5141 152.829 28.5272C153.965 27.7779 155.085 26.9972 156.202 26.2104C156.464 25.123 156.464 25.123 155.559 22.9489Z" fill="white"/>
</svg>
